<?xml version="1.0" encoding="UTF-8" standalone="no"?>
<!-- Created with Inkscape (http://www.inkscape.org/) -->

<svg
   version="1.1"
   id="svg931"
   xml:space="preserve"
   width="8.5mm"
   height="7.5mm"
   viewBox="0 0 32.125985 28.346456"
   sodipodi:docname="SWwarning-icon.svg"
   inkscape:version="1.1.1 (3bf5ae0d25, 2021-09-20)"
   xmlns:inkscape="http://www.inkscape.org/namespaces/inkscape"
   xmlns:sodipodi="http://sodipodi.sourceforge.net/DTD/sodipodi-0.dtd"
   xmlns="http://www.w3.org/2000/svg"
   xmlns:svg="http://www.w3.org/2000/svg"><defs
     id="defs935" /><sodipodi:namedview
     id="namedview933"
     pagecolor="#ffffff"
     bordercolor="#666666"
     borderopacity="1.0"
     inkscape:pageshadow="2"
     inkscape:pageopacity="0.0"
     inkscape:pagecheckerboard="0"
     showgrid="false"
     units="mm"
     width="8.5mm"
     inkscape:zoom="28.337437"
     inkscape:cx="15.43894"
     inkscape:cy="13.533334"
     inkscape:window-width="1920"
     inkscape:window-height="1017"
     inkscape:window-x="-8"
     inkscape:window-y="-8"
     inkscape:window-maximized="1"
     inkscape:current-layer="g937"
     inkscape:document-units="mm" /><g
     id="g937"
     inkscape:groupmode="layer"
     inkscape:label="ink_ext_XXXXXX"
     transform="matrix(1.3333333,0,0,-1.3333333,0,27.066667)"><g
       id="g939"
       transform="matrix(0.10399049,0,0,0.10399049,-0.00387894,-0.80692454)"><path
         d="M 110.477,197.422 3.34766,11.875 C 0.941406,7.71094 3.94922,2.5 8.75781,2.5 H 223.016 c 4.808,0 7.816,5.21094 5.41,9.375 L 121.297,197.422 c -2.402,4.168 -8.418,4.168 -10.82,0"
         style="fill:#f47425;fill-opacity:1;fill-rule:nonzero;stroke:none"
         id="path941" /><path
         d="M 110.477,197.422 3.34766,11.875 C 0.941406,7.71094 3.94922,2.5 8.75781,2.5 H 223.016 c 4.808,0 7.816,5.21094 5.41,9.375 L 121.297,197.422 c -2.402,4.168 -8.418,4.168 -10.82,0 z"
         style="fill:none;stroke:#040606;stroke-width:5;stroke-linecap:butt;stroke-linejoin:miter;stroke-miterlimit:10;stroke-dasharray:none;stroke-opacity:1"
         id="path943" /><path
         d="m 102.32,71.9922 c 10.364,0 19.032,0 27.09,0 0,24.7187 0,47.9918 0,70.7228 -9.805,0 -18.055,0 -27.09,0 0,-23.902 0,-46.715 0,-70.7228"
         style="fill:#ffffff;fill-opacity:1;fill-rule:nonzero;stroke:none"
         id="path945" /><path
         d="m 102.32,71.9922 c 10.364,0 19.032,0 27.09,0 0,24.7187 0,47.9918 0,70.7228 -9.805,0 -18.055,0 -27.09,0 0,-23.902 0,-46.715 0,-70.7228 z"
         style="fill:none;stroke:#040606;stroke-width:5;stroke-linecap:butt;stroke-linejoin:miter;stroke-miterlimit:10;stroke-dasharray:none;stroke-opacity:1"
         id="path947" /><path
         d="m 102.199,28.2031 c 10.266,0 18.473,0 27.371,0 0,8.2032 0,15.5235 0,22.4961 -10.027,0 -18.64,0 -27.371,0 0,-8.0156 0,-14.5039 0,-22.4961"
         style="fill:#ffffff;fill-opacity:1;fill-rule:nonzero;stroke:none"
         id="path949" /><path
         d="m 102.199,28.2031 c 10.266,0 18.473,0 27.371,0 0,8.2032 0,15.5235 0,22.4961 -10.027,0 -18.64,0 -27.371,0 0,-8.0156 0,-14.5039 0,-22.4961 z"
         style="fill:none;stroke:#040606;stroke-width:5;stroke-linecap:butt;stroke-linejoin:miter;stroke-miterlimit:10;stroke-dasharray:none;stroke-opacity:1"
         id="path951" /></g></g></svg>
