<?xml version="1.0" encoding="UTF-8" standalone="no"?>
<!-- Generator: Adobe Illustrator 25.3.1, SVG Export Plug-In . SVG Version: 6.00 Build 0)  -->

<svg
   version="1.1"
   id="svg182"
   inkscape:version="1.1.1 (3bf5ae0d25, 2021-09-20)"
   sodipodi:docname="warning_pacemaker_icon.svg"
   x="0px"
   y="0px"
   width="10.1mm"
   height="10.1mm"
   viewBox="0 0 38.173229 38.173232"
   xml:space="preserve"
   xmlns:inkscape="http://www.inkscape.org/namespaces/inkscape"
   xmlns:sodipodi="http://sodipodi.sourceforge.net/DTD/sodipodi-0.dtd"
   xmlns="http://www.w3.org/2000/svg"
   xmlns:svg="http://www.w3.org/2000/svg"><defs
   id="defs15" /><sodipodi:namedview
   id="namedview13"
   pagecolor="#ffffff"
   bordercolor="#666666"
   borderopacity="1.0"
   inkscape:pageshadow="2"
   inkscape:pageopacity="0.0"
   inkscape:pagecheckerboard="0"
   showgrid="false"
   inkscape:zoom="7.6326966"
   inkscape:cx="21.814047"
   inkscape:cy="32.688316"
   inkscape:window-width="1920"
   inkscape:window-height="1017"
   inkscape:window-x="-8"
   inkscape:window-y="-8"
   inkscape:window-maximized="1"
   inkscape:current-layer="layer2"
   units="mm"
   width="10.1mm"
   inkscape:document-units="mm" />
<style
   type="text/css"
   id="style2">
	.st0{fill:#F9A800;stroke:#000000;stroke-width:3.3053;stroke-miterlimit:10;}
	.st1{display:none;stroke:#000000;stroke-width:1.6629;stroke-miterlimit:10;}
	.st2{fill:none;}
</style>



<g
   inkscape:groupmode="layer"
   id="layer2"
   inkscape:label="icon 1"><g
     id="g7295"
     transform="matrix(0.82197948,0,0,0.82197948,-23.281365,-20.529569)"><path
       d="m 74.247987,48.195404 c 0,12.540096 -10.164697,22.704173 -22.703514,22.704173 -12.536293,0 -22.704778,-10.164077 -22.704778,-22.704173 0,-12.540094 10.168485,-22.703477 22.704778,-22.703477 12.538817,0 22.703514,10.163383 22.703514,22.703477 z"
       style="fill:#ffffff;stroke:#000000;stroke-width:0.57251;stroke-linecap:square;stroke-miterlimit:4;stroke-dasharray:none"
       id="path844" /><path
       d="m 56.269046,55.748625 c -2.463667,-1.799351 -3.267716,-2.455861 -4.169343,-3.401204 -1.014819,-1.063998 -2.547195,-3.229465 -2.393411,-3.381688 0.04059,-0.04137 1.690844,1.543305 3.666618,3.521421 3.366856,3.37076 3.957793,4.037417 2.896136,3.261471 z M 38.391063,54.499618 c -0.850887,-0.451204 -0.882893,-0.611233 -0.888357,-4.38714 -0.0047,-2.935948 0.0281,-3.472241 0.232628,-3.762635 0.404366,-0.575324 1.064779,-0.744721 2.897697,-0.744721 1.502713,0 1.686161,0.02732 1.69709,0.254485 0.007,0.140514 0.02342,0.483991 0.03669,0.764237 0.02186,0.468378 0.06401,0.512874 0.525364,0.556589 0.838397,0.07962 1.442604,-0.09524 1.560479,-0.452766 0.05855,-0.177202 0.120998,-0.813416 0.138952,-1.41372 0.01796,-0.600304 0.03903,-1.184996 0.04762,-1.298968 0.01171,-0.14832 0.119436,-0.110069 0.380947,0.134268 0.325523,0.305227 0.365335,0.459011 0.365335,1.415282 0,1.768907 -0.403586,2.235724 -2.04525,2.366089 -0.940659,0.07494 -0.949246,0.07962 -0.949246,0.512093 v 0.437153 l 2.081159,0.03981 2.08194,0.04059 -0.0023,2.215427 c -0.0023,2.4543 -0.07728,2.740011 -0.861035,3.266155 -0.477745,0.320839 -0.601866,0.331768 -3.650225,0.326303 -2.75172,-0.0055 -3.218537,-0.03981 -3.649444,-0.268536 z m 7.14042,-0.889918 c 0.25995,-0.258389 0.291956,-0.484771 0.291956,-2.033541 v -1.742366 l -2.081159,-0.04059 -2.08194,-0.04059 -0.07338,-1.67367 -0.0726,-1.673671 h -1.436359 c -1.252911,0 -1.462901,0.03591 -1.643226,0.282588 -0.163932,0.223261 -0.206867,0.950807 -0.206867,3.481609 0,2.772797 0.03201,3.23415 0.241215,3.465216 0.220918,0.242776 0.529267,0.266195 3.505808,0.266195 3.069436,0 3.281768,-0.01717 3.556549,-0.291175 z m 9.093557,-4.626793 c -3.073339,-3.072559 -5.587748,-5.648637 -5.587748,-5.724358 0,-0.412173 0.817319,-1.6362 1.47539,-2.209963 0.733792,-0.639336 0.754869,-0.678368 0.684613,-1.297407 -0.03981,-0.350503 -0.24746,-0.901627 -0.461353,-1.223247 -1.337218,-2.014025 -4.584638,-1.522228 -5.277838,0.799365 l -0.103043,0.345038 -0.306007,-0.305226 c -0.291955,-0.290394 -0.295078,-0.326303 -0.06791,-0.800145 0.416076,-0.869622 1.106153,-1.517545 1.952356,-1.832919 0.960955,-0.358309 1.506615,-0.373141 2.533924,-0.0687 1.320826,0.390315 2.49177,1.839164 2.49177,3.082707 0,0.270098 0.08899,0.293517 1.059315,0.282588 1.396547,-0.01561 2.177176,0.339574 3.461312,1.574531 l 0.993742,0.956271 0.90475,-0.939097 c 1.113959,-1.155332 2.031979,-1.597169 3.305187,-1.590143 1.138158,0.007 2.035882,0.399682 2.914871,1.275549 0.372361,0.370799 0.852448,1.047605 1.066341,1.503493 0.342696,0.73145 0.388753,1.008573 0.389534,2.357502 0.0016,1.341122 -0.05386,1.681476 -0.449643,2.782164 -0.740037,2.060082 -2.533144,4.416804 -4.532336,5.957767 l -0.859474,0.661974 -5.587748,-5.586967 z"
       style="fill:#000000;fill-opacity:1;stroke-width:0.078063"
       id="path846" /><path
       d="m 51.545455,26.467982 c -5.349656,0 -10.248108,1.947672 -14.029478,5.171673 -0.09914,0.08431 -0.1975,0.170177 -0.295078,0.256046 -0.03903,0.03513 -0.07806,0.07026 -0.117095,0.105385 -0.08353,0.07494 -0.166274,0.149881 -0.249021,0.226383 -0.02186,0.0203 -0.04371,0.04059 -0.06557,0.06089 -0.09758,0.09133 -0.194376,0.183448 -0.290394,0.275562 -0.110069,0.106947 -0.219357,0.213893 -0.327084,0.322401 -0.105385,0.106165 -0.21155,0.213111 -0.314594,0.321619 -0.106946,0.113191 -0.212331,0.228725 -0.316935,0.344258 -0.01249,0.01327 -0.02498,0.02576 -0.03669,0.03903 -0.09055,0.09992 -0.179545,0.200622 -0.268537,0.302104 -0.0968,0.11163 -0.190473,0.224041 -0.284929,0.337232 -0.0039,0.0039 -0.0086,0.0078 -0.01249,0.01171 -3.16155,3.776687 -5.067068,8.643914 -5.067068,13.9561 0,11.995158 9.709474,21.72805 21.674967,21.72805 5.361366,0 10.268405,-1.957039 14.053679,-5.19353 l 0.0023,0.0023 c 0.03044,-0.02576 0.06089,-0.05152 0.09055,-0.07806 0.01249,-0.01015 0.0242,-0.02108 0.03669,-0.03123 0.07338,-0.06401 0.146759,-0.128024 0.219357,-0.192816 0.05777,-0.05152 0.113972,-0.102263 0.170958,-0.153784 0.01639,-0.01483 0.03279,-0.02888 0.0484,-0.04371 0.07572,-0.06948 0.149881,-0.139733 0.224822,-0.20999 0.06713,-0.06323 0.133487,-0.126462 0.199841,-0.190473 0.0094,-0.0086 0.01795,-0.01796 0.02732,-0.02654 0.08431,-0.08275 0.167055,-0.165493 0.250582,-0.249021 0.02498,-0.0242 0.04918,-0.0484 0.07338,-0.07338 0.09758,-0.09836 0.194377,-0.199061 0.290395,-0.299762 0.0094,-0.01015 0.01951,-0.01952 0.02966,-0.02966 0.109289,-0.115533 0.219357,-0.232627 0.326304,-0.351283 0.09836,-0.108508 0.194377,-0.218576 0.290394,-0.328645 0.01796,-0.02108 0.03591,-0.04059 0.05386,-0.06167 0.08197,-0.09446 0.163152,-0.190474 0.243557,-0.287272 3.14828,-3.772784 5.04521,-8.629862 5.04521,-13.929558 0,-11.995157 -9.711815,-21.731172 -21.677309,-21.731172 z m 0,4.844589 c 9.298082,0 16.84443,7.565083 16.84443,16.885803 0,3.969503 -1.366882,7.620508 -3.65647,10.504155 L 40.963238,35.06662 c 2.892233,-2.346574 6.573683,-3.754049 10.582217,-3.754049 z m -13.162979,6.355107 23.774861,23.640593 c -2.897698,2.360624 -6.590077,3.775906 -10.611882,3.775906 -9.298081,0 -16.842087,-7.565083 -16.842087,-16.885803 0,-3.981212 1.37703,-7.643146 3.679108,-10.531477 z"
       style="fill:#cc0000;stroke:#cc0000;stroke-width:0.156126"
       id="path848" /></g></g></svg>
