<?xml version="1.0" encoding="UTF-8" standalone="no"?>
<!-- Generator: Adobe Illustrator 25.3.1, SVG Export Plug-In . SVG Version: 6.00 Build 0)  -->

<svg
   version="1.1"
   id="Layer_1"
   x="60px"
   y="47.1px"
   viewBox="0 0 38.17323 34.015748"
   xml:space="preserve"
   sodipodi:docname="warning_corr_icon.svg"
   width="10.1mm"
   height="9mm"
   inkscape:version="1.1.1 (3bf5ae0d25, 2021-09-20)"
   xmlns:inkscape="http://www.inkscape.org/namespaces/inkscape"
   xmlns:sodipodi="http://sodipodi.sourceforge.net/DTD/sodipodi-0.dtd"
   xmlns="http://www.w3.org/2000/svg"
   xmlns:svg="http://www.w3.org/2000/svg"><defs
   id="defs4671" /><sodipodi:namedview
   id="namedview4669"
   pagecolor="#ffffff"
   bordercolor="#666666"
   borderopacity="1.0"
   inkscape:pageshadow="2"
   inkscape:pageopacity="0.0"
   inkscape:pagecheckerboard="0"
   showgrid="false"
   units="mm"
   inkscape:zoom="16.284501"
   inkscape:cx="29.997849"
   inkscape:cy="27.050261"
   inkscape:window-width="1920"
   inkscape:window-height="1017"
   inkscape:window-x="-8"
   inkscape:window-y="-8"
   inkscape:window-maximized="1"
   inkscape:current-layer="Layer_1"
   inkscape:document-units="mm" />
<style
   type="text/css"
   id="style4625">
	.st0{fill:#F9A800;stroke:#000000;stroke-width:3.3053;stroke-miterlimit:10;}
	.st1{display:none;stroke:#000000;stroke-width:1.6629;stroke-miterlimit:10;}
	.st2{fill-rule:evenodd;clip-rule:evenodd;stroke:#000000;stroke-width:0.1046;}
	.st3{fill:none;stroke:#000000;stroke-width:0.5137;}
	.st4{stroke:#000000;stroke-width:0.1712;}
	.st5{stroke:#000000;stroke-width:0.2354;}
	.st6{fill:none;}
</style>
<g
   id="triangle_copy"
   transform="matrix(0.77199853,0,0,0.77199853,-4.0487973,-1.275775)">
	<g
   id="g4631">
		<path
   class="st0"
   d="M 28.8,4.3 7.3,41.4 c -0.5,0.9 0.1,2.1 1.2,2.1 h 42.9 c 1.1,0 1.8,-1.2 1.2,-2.1 L 31.2,4.3 c -0.5,-1 -1.9,-1 -2.4,0 z"
   id="path4627" />
		<path
   class="st1"
   d="m 30,33.9 c 0.5,0 0.9,0.2 1.3,0.5 0.3,0.3 0.5,0.8 0.5,1.3 0,0.5 -0.2,0.9 -0.5,1.3 -0.4,0.3 -0.8,0.5 -1.3,0.5 -0.5,0 -0.9,-0.2 -1.3,-0.5 -0.4,-0.3 -0.5,-0.8 -0.5,-1.3 0,-0.5 0.2,-0.9 0.5,-1.3 0.4,-0.3 0.8,-0.5 1.3,-0.5 z M 29.4,30.8 28.3,18.1 c 0,-0.4 -0.1,-0.6 -0.1,-0.7 0,-0.7 0.2,-1.2 0.5,-1.5 0.3,-0.3 0.8,-0.5 1.3,-0.5 0.5,0 0.9,0.2 1.2,0.5 0.3,0.3 0.5,0.7 0.5,1.3 0,0.2 0,0.5 -0.1,0.9 L 30.5,31 h -1.1 z"
   id="path4629" />
	</g>
</g>
<g
   id="corrosion"
   transform="matrix(0.77199853,0,0,0.77199853,-4.0487973,-1.275775)">
	<path
   class="st2"
   d="m 14.6,37.4 v 2.5 H 27 v -2.5 h -3.6 c 0,0 0,0 0,0.1 0,0.1 -0.1,0.2 -0.2,0.3 -0.2,0 -0.2,0.1 -0.3,0.2 -0.1,0 -0.2,0.1 -0.4,0.1 -0.1,0 -0.3,0 -0.4,0.1 -0.1,0.1 -0.1,0.2 -0.1,0.3 -0.1,0.1 -0.1,0.1 -0.2,0.2 -0.1,0.1 -0.1,0.1 -0.3,0.1 -0.1,0 -0.3,0 -0.4,0 -0.1,0 -0.2,-0.1 -0.2,-0.2 0,-0.1 -0.1,-0.2 -0.1,-0.3 -0.1,-0.2 -0.2,-0.1 -0.3,-0.2 -0.1,-0.1 -0.2,-0.2 -0.2,-0.3 0,-0.1 0,-0.2 0.1,-0.3 z"
   id="path4634" />
	<path
   class="st2"
   d="m 31.1,39.2 c 0,-1 1.3,-2.1 2.5,-2.1 0.5,0 1,-0.2 1.2,-0.3 0.3,-0.4 -0.1,-0.8 -2.4,-2.5 l -1.5,-1.1 h -3.1 c -3,0 -3.1,0 -3.5,-0.6 -0.3,-0.5 -0.4,-0.7 -0.1,-1.2 0.3,-0.6 0.4,-0.6 4.8,-0.5 3.5,0.1 4.5,0.2 4.6,0.5 -0.2,1 0.9,1.9 1.9,1.5 0.3,-0.1 0.7,0.1 1.2,0.5 0.5,1.1 2.1,0.5 1.7,-0.7 -0.2,-0.5 0.1,-0.8 0.4,-0.8 0.2,0 1.2,-0.4 2.1,-0.9 l 1.6,-0.9 1.3,2.4 c 0.7,1.3 1.3,2.4 1.2,2.5 -0.1,0.1 -2.2,1.1 -4.7,2.2 -3.4,1.6 -5.1,2.2 -6.6,2.5 -2.8,0.3 -2.6,0.4 -2.6,-0.5 z"
   id="path4636" />
	<path
   class="st3"
   d="m 33.9,19.6 0.5,2.1 -4.6,1 -2.4,0.5 C 26.8,23.3 26.2,23 26.1,22.4 26,21.8 26.3,21.2 26.9,21.1 l 2.4,-0.5 z"
   id="path4638" />
	<polygon
   class="st4"
   points="34.4,22 34.6,22 34,19.2 33.8,19.3 "
   id="polygon4640" />
	<path
   class="st5"
   d="m 26,21.9 c 0,0.1 0,0.3 0,0.4 0.1,0.6 0.7,1 1.3,0.8 l 2.4,-0.5 3.4,-0.7 z"
   id="path4642" />
	<path
   class="st3"
   d="m 22.4,25.5 -0.2,2.1 4.7,0.5 2.5,0.3 c 0.6,0.1 1.1,-0.4 1.2,-1 0.1,-0.6 -0.4,-1.1 -1,-1.2 L 27.2,26 Z"
   id="path4644" />
	<polygon
   class="st4"
   points="22.3,28 22.1,28 22.4,25.1 22.6,25.2 "
   id="polygon4646" />
	<path
   class="st5"
   d="m 23.2,27.7 3.7,0.4 2.5,0.3 c 0.5,0.1 0.9,-0.2 1.1,-0.7 z"
   id="path4648" />
	<g
   transform="translate(613.73971)"
   id="g4654">
		<path
   d="m -582.8,33.5 0.7,0.6 -4.2,1.1 c -1.5,0.3 -1.1,-1.7 -0.6,-1.7 z"
   id="path4650" />
		<path
   d="m -584.8,35.2 3,-0.9 0.6,0.5 -2.7,1.9 c -0.9,0.4 -1.9,-1 -0.9,-1.5 z"
   id="path4652" />
	</g>
	<path
   class="st4"
   d="m 34.8,23.5 c 0.1,-0.8 0.5,-0.7 0.7,0 l 0.5,2.4 c 0.1,0.9 -1.8,1 -1.6,0 z"
   id="path4656" />
	<path
   class="st4"
   d="m 21.3,33.5 c 0.1,-0.8 0.5,-0.7 0.7,0 l 0.5,2.4 c 0.1,0.9 -1.8,1 -1.6,0 z"
   id="path4658" />
	<path
   class="st4"
   d="m 21.4,29.3 c 0.1,-0.8 0.5,-0.7 0.7,0 l 0.5,2.4 c 0.1,0.9 -1.8,1 -1.6,0 z"
   id="path4660" />
	<path
   class="st4"
   d="m 34.7,28.8 c 0.1,-0.8 0.5,-0.7 0.7,0 l 0.5,2.4 c 0.1,0.9 -1.8,1 -1.6,0 z"
   id="path4662" />
</g>

</svg>
