<?xml version="1.0" encoding="UTF-8" standalone="no"?>
<!-- Generator: Adobe Illustrator 25.3.1, SVG Export Plug-In . SVG Version: 6.00 Build 0)  -->

<svg
   version="1.1"
   id="Layer_1"
   x="0px"
   y="0px"
   width="10.1mm"
   height="9mm"
   viewBox="0 0 38.17323 34.015748"
   xml:space="preserve"
   sodipodi:docname="warning_heat_icon.svg"
   inkscape:version="1.1.1 (3bf5ae0d25, 2021-09-20)"
   xmlns:inkscape="http://www.inkscape.org/namespaces/inkscape"
   xmlns:sodipodi="http://sodipodi.sourceforge.net/DTD/sodipodi-0.dtd"
   xmlns="http://www.w3.org/2000/svg"
   xmlns:svg="http://www.w3.org/2000/svg"><defs
   id="defs5889" /><sodipodi:namedview
   id="namedview5887"
   pagecolor="#ffffff"
   bordercolor="#666666"
   borderopacity="1.0"
   inkscape:pageshadow="2"
   inkscape:pageopacity="0.0"
   inkscape:pagecheckerboard="0"
   showgrid="false"
   units="mm"
   inkscape:zoom="16.284502"
   inkscape:cx="29.997848"
   inkscape:cy="23.549999"
   inkscape:window-width="1920"
   inkscape:window-height="1017"
   inkscape:window-x="-8"
   inkscape:window-y="-8"
   inkscape:window-maximized="1"
   inkscape:current-layer="Layer_1"
   inkscape:document-units="mm" />
<style
   type="text/css"
   id="style5865">
	.st0{fill:#F9A800;stroke:#000000;stroke-width:3.3053;stroke-miterlimit:10;}
	.st1{display:none;stroke:#000000;stroke-width:1.6629;stroke-miterlimit:10;}
	.st2{fill:none;stroke:#000000;stroke-width:1.3015;}
	.st3{fill:none;}
</style>
<g
   id="triangle_copy"
   transform="matrix(0.77199853,0,0,0.77199853,-4.0487973,-1.275775)">
	<g
   id="g5871">
		<path
   class="st0"
   d="M 28.8,4.3 7.3,41.4 c -0.5,0.9 0.1,2.1 1.2,2.1 h 42.9 c 1.1,0 1.8,-1.2 1.2,-2.1 L 31.2,4.3 c -0.5,-1 -1.9,-1 -2.4,0 z"
   id="path5867" />
		<path
   class="st1"
   d="m 30,33.9 c 0.5,0 0.9,0.2 1.3,0.5 0.3,0.3 0.5,0.8 0.5,1.3 0,0.5 -0.2,0.9 -0.5,1.3 -0.4,0.3 -0.8,0.5 -1.3,0.5 -0.5,0 -0.9,-0.2 -1.3,-0.5 -0.4,-0.3 -0.5,-0.8 -0.5,-1.3 0,-0.5 0.2,-0.9 0.5,-1.3 0.4,-0.3 0.8,-0.5 1.3,-0.5 z M 29.4,30.8 28.3,18.1 c 0,-0.4 -0.1,-0.6 -0.1,-0.7 0,-0.7 0.2,-1.2 0.5,-1.5 0.3,-0.3 0.8,-0.5 1.3,-0.5 0.5,0 0.9,0.2 1.2,0.5 0.3,0.3 0.5,0.7 0.5,1.3 0,0.2 0,0.5 -0.1,0.9 L 30.5,31 h -1.1 z"
   id="path5869" />
	</g>
</g>
<g
   id="heat"
   transform="matrix(0.77199853,0,0,0.77199853,-4.0487973,-1.275775)">
	<rect
   x="20.299999"
   y="36.900002"
   width="20.299999"
   height="2"
   id="rect5874" />
	<path
   class="st2"
   d="m 25.8,35.1 c 4.6,-6.6 -4.9,-8.5 -0.2,-15"
   id="path5876" />
	<path
   class="st2"
   d="m 30.8,35.1 c 4.6,-6.6 -4.9,-8.4 -0.2,-15"
   id="path5878" />
	<path
   class="st2"
   d="M 35.8,35.1 C 40.4,28.5 31,26.6 35.7,20"
   id="path5880" />
</g>

</svg>
