<?xml version="1.0" encoding="UTF-8" standalone="no"?>
<!-- Generator: Adobe Illustrator 25.3.1, SVG Export Plug-In . SVG Version: 6.00 Build 0)  -->

<svg
   version="1.1"
   id="Layer_1"
   x="0"
   y="0"
   width="10.2mm"
   height="9.1000004mm"
   viewBox="0 0 38.551181 34.393702"
   xml:space="preserve"
   sodipodi:docname="warning_magnetic_icon.svg"
   inkscape:version="1.1.1 (3bf5ae0d25, 2021-09-20)"
   xmlns:inkscape="http://www.inkscape.org/namespaces/inkscape"
   xmlns:sodipodi="http://sodipodi.sourceforge.net/DTD/sodipodi-0.dtd"
   xmlns="http://www.w3.org/2000/svg"
   xmlns:svg="http://www.w3.org/2000/svg"><defs
   id="defs17">
	

		
		
	</defs><sodipodi:namedview
   id="namedview15"
   pagecolor="#ffffff"
   bordercolor="#666666"
   borderopacity="1.0"
   inkscape:pageshadow="2"
   inkscape:pageopacity="0.0"
   inkscape:pagecheckerboard="0"
   showgrid="false"
   inkscape:zoom="11.304701"
   inkscape:cx="23.928099"
   inkscape:cy="26.670321"
   inkscape:window-width="1920"
   inkscape:window-height="1017"
   inkscape:window-x="-8"
   inkscape:window-y="-8"
   inkscape:window-maximized="1"
   inkscape:current-layer="Layer_1"
   units="mm"
   inkscape:document-units="mm" />
<style
   type="text/css"
   id="style2">
	.st0{fill:#F9A800;stroke:#000000;stroke-width:3.3053;stroke-miterlimit:10;}
	.st1{stroke:#000000;stroke-width:1.6629;stroke-miterlimit:10;}
	.st2{fill:none;}
</style>
<path
   class="st0"
   d="M 18.36805,2.2316489 1.7700815,30.872794 c -0.3859993,0.694798 0.0772,1.621197 0.9263982,1.621197 H 35.815216 c 0.849199,0 1.389598,-0.926399 0.926398,-1.621197 L 20.220846,2.2316489 c -0.385999,-0.7719986 -1.466797,-0.7719986 -1.852796,0 z"
   id="path4" />

<g
   id="g1690"
   transform="matrix(0.06204177,0,0,0.06204177,17.384448,19.875286)"><path
     d="m 29.30705,-104.78603 c -17.796,-0.002 -35.667,3.5478 -50.281,10.969 -13.455,6.8324 -27.156,22.519 -31.719,36.344 -4.3714,13.245 -2.672,54.968 5.7188,140.31 3.2131,32.681 7.0518,66.822 7.086,69.612 l 48.82,-0.0498 -1.7812,-12.312 c -1.6106,-11.097 -13.982,-124.11 -17.531,-160.16 -2.957,-30.035 12.081,-47.812 40.406,-47.812 19.572,0 33.24,8.7296 38.688,24.719 3.4846,10.228 2.8103,21.46 -6.1562,101.38 -5.545,49.42 -9.1449,92.771 -8.4505,93.966 l 46.513,0.22123 1.6562,-15.219 c 0.91505,-8.3696 2.946,-30.229 4.5312,-48.562 1.5853,-18.333 4.16,-46.37 5.7188,-62.312 6.5304,-66.789 2.8814,-91.343 -16.219,-109.25 -15.177,-14.229 -40.99,-21.84 -67,-21.844 z m -68.188,199.22 32.132,-0.45029 6.6184,49.732 c -11.688,0 -21.015,0.78651 -32.703,0.78651 z m 105.47,0 h 32.375 l -4.5365,48.73 -31.742,-1.0213 z"
     fill="#000000"
     id="path1371" /><g
     fill="#000000"
     transform="translate(396.18021,-310.09603)"
     id="g1383"><path
       style="color:#000000;enable-background:accumulate"
       d="m -253.43,398.62 8.43,-1.65 c 3.8707,16.082 5.9928,40.238 0,60.591 l -8.0337,-1.573 c 4.0077,-22.617 3.6558,-34.612 -0.39326,-57.36 z"
       id="path1373" /><path
       style="color:#000000;enable-background:accumulate"
       d="m -273.43,398.62 8.43,-1.65 c 3.8707,16.082 5.9928,40.238 0,60.591 l -8.0337,-1.573 c 4.0077,-22.617 3.6558,-34.612 -0.39326,-57.36 z"
       id="path1375" /><g
       transform="matrix(-1,0,0,1,-730.68632,0)"
       id="g1381"><path
         style="color:#000000;enable-background:accumulate"
         d="m -253.43,398.62 8.43,-1.65 c 3.8707,16.082 5.9928,40.238 0,60.591 l -8.0337,-1.573 c 4.0077,-22.617 3.6558,-34.612 -0.39326,-57.36 z"
         id="path1377" /><path
         style="color:#000000;enable-background:accumulate"
         d="m -273.43,398.62 8.43,-1.65 c 3.8707,16.082 5.9928,40.238 0,60.591 l -8.0337,-1.573 c 4.0077,-22.617 3.6558,-34.612 -0.39326,-57.36 z"
         id="path1379" /></g></g></g></svg>
