<?xml version="1.0" encoding="UTF-8" standalone="no"?>
<!-- Generator: Adobe Illustrator 25.3.1, SVG Export Plug-In . SVG Version: 6.00 Build 0)  -->

<svg
   version="1.1"
   id="Layer_1"
   x="0px"
   y="0px"
   width="10.1mm"
   height="9mm"
   viewBox="0 0 38.17323 34.015748"
   xml:space="preserve"
   sodipodi:docname="warning_laser_icon.svg"
   inkscape:version="1.1.1 (3bf5ae0d25, 2021-09-20)"
   xmlns:inkscape="http://www.inkscape.org/namespaces/inkscape"
   xmlns:sodipodi="http://sodipodi.sourceforge.net/DTD/sodipodi-0.dtd"
   xmlns="http://www.w3.org/2000/svg"
   xmlns:svg="http://www.w3.org/2000/svg"><defs
   id="defs36" /><sodipodi:namedview
   id="namedview34"
   pagecolor="#ffffff"
   bordercolor="#666666"
   borderopacity="1.0"
   inkscape:pageshadow="2"
   inkscape:pageopacity="0.0"
   inkscape:pagecheckerboard="0"
   showgrid="false"
   inkscape:zoom="11.304701"
   inkscape:cx="19.947454"
   inkscape:cy="30.739424"
   inkscape:window-width="1920"
   inkscape:window-height="1017"
   inkscape:window-x="-8"
   inkscape:window-y="-8"
   inkscape:window-maximized="1"
   inkscape:current-layer="Layer_1"
   units="mm"
   inkscape:document-units="mm" />
<style
   type="text/css"
   id="style2">
	.st0{fill:#F9A800;stroke:#000000;stroke-width:3.3053;stroke-miterlimit:10;}
	.st1{display:none;stroke:#000000;stroke-width:1.6629;stroke-miterlimit:10;}
	.st2{fill:none;stroke:#000000;stroke-width:2.0589;stroke-linecap:round;stroke-linejoin:round;stroke-miterlimit:10;}
	.st3{fill:none;stroke:#000000;stroke-width:3.2599;stroke-linecap:round;stroke-linejoin:round;stroke-miterlimit:10;}
	.st4{fill:none;stroke:#000000;stroke-width:2.4021;stroke-linecap:round;stroke-linejoin:round;stroke-miterlimit:10;}
	.st5{fill:none;stroke:#000000;stroke-width:0.5147;stroke-linejoin:round;stroke-miterlimit:10;}
	.st6{fill:none;}
</style>
<g
   id="triangle_copy"
   transform="matrix(0.77199853,0,0,0.77199853,-4.0487973,-1.275775)">
	<g
   id="g8">
		<path
   class="st0"
   d="M 28.8,4.3 7.3,41.4 c -0.5,0.9 0.1,2.1 1.2,2.1 h 42.9 c 1.1,0 1.8,-1.2 1.2,-2.1 L 31.2,4.3 c -0.5,-1 -1.9,-1 -2.4,0 z"
   id="path4" />
		<path
   class="st1"
   d="m 30,33.9 c 0.5,0 0.9,0.2 1.3,0.5 0.3,0.3 0.5,0.8 0.5,1.3 0,0.5 -0.2,0.9 -0.5,1.3 -0.4,0.3 -0.8,0.5 -1.3,0.5 -0.5,0 -0.9,-0.2 -1.3,-0.5 -0.4,-0.3 -0.5,-0.8 -0.5,-1.3 0,-0.5 0.2,-0.9 0.5,-1.3 0.4,-0.3 0.8,-0.5 1.3,-0.5 z M 29.4,30.8 28.3,18.1 c 0,-0.4 -0.1,-0.6 -0.1,-0.7 0,-0.7 0.2,-1.2 0.5,-1.5 0.3,-0.3 0.8,-0.5 1.3,-0.5 0.5,0 0.9,0.2 1.2,0.5 0.3,0.3 0.5,0.7 0.5,1.3 0,0.2 0,0.5 -0.1,0.9 L 30.5,31 h -1.1 z"
   id="path6" />
	</g>
</g>


<g
   transform="matrix(0.06304836,0,0,0.06304836,43.505786,1.418766)"
   id="g2978"><g
     id="g2942"
     style="fill:#000000;stroke:#000000"><rect
       width="8.932188"
       height="225.88577"
       x="-392.22946"
       y="208.2478"
       id="rect2934"
       style="fill:#000000;fill-opacity:1;stroke:#000000;stroke-width:0.885827;stroke-linecap:square;stroke-miterlimit:4;stroke-dasharray:none;stroke-dashoffset:0;stroke-opacity:1" /><rect
       width="8.932188"
       height="147.93304"
       x="-462.147"
       y="135.91931"
       transform="rotate(-14.999995)"
       id="rect2940"
       style="fill:#000000;fill-opacity:1;stroke:#000000;stroke-width:0.885827;stroke-linecap:square;stroke-miterlimit:4;stroke-dasharray:none;stroke-dashoffset:0;stroke-opacity:1" /></g><g
     transform="rotate(-30.000012,-387.76356,321.19036)"
     id="g2946"
     style="fill:#000000;stroke:#000000"><rect
       width="8.932188"
       height="225.88577"
       x="-392.22946"
       y="208.2478"
       id="rect2948"
       style="fill:#000000;fill-opacity:1;stroke:#000000;stroke-width:0.885827;stroke-linecap:square;stroke-miterlimit:4;stroke-dasharray:none;stroke-dashoffset:0;stroke-opacity:1" /><rect
       width="8.932188"
       height="147.93304"
       x="-462.147"
       y="135.91931"
       transform="rotate(-14.999995)"
       id="rect2950"
       style="fill:#000000;fill-opacity:1;stroke:#000000;stroke-width:0.885827;stroke-linecap:square;stroke-miterlimit:4;stroke-dasharray:none;stroke-dashoffset:0;stroke-opacity:1" /></g><g
     transform="rotate(-59.999988,-387.76346,321.1907)"
     id="g2952"
     style="fill:#000000;stroke:#000000"><rect
       width="8.932188"
       height="225.88577"
       x="-392.22946"
       y="208.2478"
       id="rect2954"
       style="fill:#000000;fill-opacity:1;stroke:#000000;stroke-width:0.885827;stroke-linecap:square;stroke-miterlimit:4;stroke-dasharray:none;stroke-dashoffset:0;stroke-opacity:1" /><rect
       width="8.932188"
       height="147.93304"
       x="-462.147"
       y="135.91931"
       transform="rotate(-14.999995)"
       id="rect2956"
       style="fill:#000000;fill-opacity:1;stroke:#000000;stroke-width:0.885827;stroke-linecap:square;stroke-miterlimit:4;stroke-dasharray:none;stroke-dashoffset:0;stroke-opacity:1" /></g><rect
     width="8.932188"
     height="302.24036"
     x="-325.65689"
     y="-500.70599"
     transform="rotate(-90)"
     id="rect2960"
     style="fill:#000000;fill-opacity:1;stroke:#000000;stroke-width:0.885827;stroke-linecap:square;stroke-miterlimit:4;stroke-dasharray:none;stroke-dashoffset:0;stroke-opacity:1" /><rect
     width="8.932189"
     height="147.93307"
     x="-214.3521"
     y="-531.64728"
     transform="rotate(-104.99999)"
     id="rect2962"
     style="fill:#000000;fill-opacity:1;stroke:#000000;stroke-width:0.885827;stroke-linecap:square;stroke-miterlimit:4;stroke-dasharray:none;stroke-dashoffset:0;stroke-opacity:1" /><g
     transform="matrix(-0.5,-0.866026,0.866026,-0.5,-859.8043,145.9731)"
     id="g2964"
     style="fill:#000000;stroke:#000000"><rect
       width="8.932188"
       height="225.88577"
       x="-392.22946"
       y="208.2478"
       id="rect2966"
       style="fill:#000000;fill-opacity:1;stroke:#000000;stroke-width:0.885827;stroke-linecap:square;stroke-miterlimit:4;stroke-dasharray:none;stroke-dashoffset:0;stroke-opacity:1" /><rect
       width="8.932188"
       height="147.93304"
       x="-462.147"
       y="135.91931"
       transform="rotate(-14.999995)"
       id="rect2968"
       style="fill:#000000;fill-opacity:1;stroke:#000000;stroke-width:0.885827;stroke-linecap:square;stroke-miterlimit:4;stroke-dasharray:none;stroke-dashoffset:0;stroke-opacity:1" /></g><g
     transform="matrix(-0.866026,-0.500001,0.500001,-0.866026,-884.1717,405.4684)"
     id="g2970"
     style="fill:#000000;stroke:#000000"><rect
       width="8.932188"
       height="225.88577"
       x="-392.22946"
       y="208.2478"
       id="rect2972"
       style="fill:#000000;fill-opacity:1;stroke:#000000;stroke-width:0.885827;stroke-linecap:square;stroke-miterlimit:4;stroke-dasharray:none;stroke-dashoffset:0;stroke-opacity:1" /><rect
       width="8.932188"
       height="147.93304"
       x="-462.147"
       y="135.91931"
       transform="rotate(-14.999995)"
       id="rect2974"
       style="fill:#000000;fill-opacity:1;stroke:#000000;stroke-width:0.885827;stroke-linecap:square;stroke-miterlimit:4;stroke-dasharray:none;stroke-dashoffset:0;stroke-opacity:1" /></g></g></svg>
