<?xml version="1.0" encoding="UTF-8" standalone="no"?>
<!-- Created with Inkscape (http://www.inkscape.org/) -->

<svg
   version="1.1"
   id="svg943"
   xml:space="preserve"
   width="10mm"
   height="8.8999996mm"
   viewBox="0 0 37.795274 33.637793"
   sodipodi:docname="warning_presspinch_icon.svg"
   inkscape:version="1.1.1 (3bf5ae0d25, 2021-09-20)"
   xmlns:inkscape="http://www.inkscape.org/namespaces/inkscape"
   xmlns:sodipodi="http://sodipodi.sourceforge.net/DTD/sodipodi-0.dtd"
   xmlns="http://www.w3.org/2000/svg"
   xmlns:svg="http://www.w3.org/2000/svg"><defs
     id="defs947" /><sodipodi:namedview
     id="namedview945"
     pagecolor="#ffffff"
     bordercolor="#666666"
     borderopacity="1.0"
     inkscape:pageshadow="2"
     inkscape:pageopacity="0.0"
     inkscape:pagecheckerboard="0"
     showgrid="false"
     inkscape:zoom="17.29474"
     inkscape:cx="19.977172"
     inkscape:cy="12.402615"
     inkscape:window-width="1920"
     inkscape:window-height="1017"
     inkscape:window-x="-8"
     inkscape:window-y="-8"
     inkscape:window-maximized="1"
     inkscape:current-layer="g949"
     units="mm"
     inkscape:document-units="mm" /><g
     id="g949"
     inkscape:groupmode="layer"
     inkscape:label="ink_ext_XXXXXX"
     transform="matrix(1.3333333,0,0,-1.3333333,0,41.573333)"><g
       id="g951"
       transform="matrix(0.0889981,0,0,0.0889981,-3.4862094,4.7604054)"><path
         d="M 186.152,280.082 50.9453,45.8984 C 45.4883,36.4531 52.3086,24.6406 63.2188,24.6406 H 333.633 c 10.91,0 17.726,11.8125 12.273,21.2578 L 210.699,280.082 c -5.457,9.449 -19.094,9.449 -24.547,0"
         style="fill:#f9a800;fill-opacity:1;fill-rule:nonzero;stroke:none"
         id="path953" /><path
         d="M 186.152,280.082 50.9453,45.8984 C 45.4883,36.4531 52.3086,24.6406 63.2188,24.6406 H 333.633 c 10.91,0 17.726,11.8125 12.273,21.2578 L 210.699,280.082 c -5.457,9.449 -19.094,9.449 -24.547,0 z"
         style="fill:none;stroke:#000000;stroke-width:20;stroke-linecap:butt;stroke-linejoin:miter;stroke-miterlimit:10;stroke-dasharray:none;stroke-opacity:1"
         id="path955" /><path
         d="m 207.852,148.117 -16.473,19.207 8.707,0.004 0.371,16.754 0.281,16.426 h 7.082 7.078 l 0.282,-16.426 0.195,-16.754 8.867,-0.004 z m -42.512,-27.152 -0.281,-0.004 -12.918,9.539 c -6.266,1.809 -8.969,4.184 -10.582,9.969 -0.426,2.543 0.496,3.394 2.082,4.828 l 18.586,-7.578 5.945,-4.364 v -10.261 l -2.547,-2.125 z m 19.836,0.793 -0.293,49.605 H 171.57 v -15.758 c 9.524,-13.8 10.465,-23.343 1.645,-35.937 l 4.871,-4.895 z m -7.149,-12.149 -0.507,0.008 c -3.375,3.375 -6.747,6.75 -10.118,10.129 l 2.598,2.777 c 10.086,9.438 3.484,25.29 -2.422,31.618 l 0.313,20.312 h 20.953 l 0.297,-54.226 c -3.536,-3.543 -7.071,-7.082 -10.606,-10.622 z M 140.559,98.2773 c -0.496,0.5977 -0.993,1.1954 -1.489,1.7927 l -0.242,8.039 c 0.223,3.84 -1.711,6.836 1.309,9.313 l 8.566,3.172 8.563,3.168 h 0.839 0.836 l 3.911,-2.907 3.906,-2.91 4.105,-4.015 4.106,-4.016 v -0.641 -0.64 c -4.852,-0.692 -9.996,-0.735 -14.504,-0.727 -1.301,0.965 -2.602,1.934 -3.902,2.899 -2.399,-0.153 -4.133,-1.172 -5.946,-2.36 v -2.992 c -0.961,-1.637 -1.922,-3.273 -2.883,-4.91 h -1.964 c -0.645,-0.7578 -1.293,-1.5117 -1.942,-2.2657 z m 70.996,-51.539 -1.188,0.0039 c -5.051,2.5586 -6.355,5.6211 -7.769,10.668 1.273,7.6328 2.797,15.9843 4.121,23.0273 0.222,1.8984 0.445,3.7969 0.668,5.6953 -0.528,0.4375 -1.051,0.8711 -1.578,1.3086 -5.055,1.4531 -10.149,2.7305 -15.262,3.957 -2.457,-1.0625 -4.91,-2.125 -7.363,-3.1836 -1.364,-0.4804 -2.723,-0.957 -4.082,-1.4335 -4.594,1.621 -9.192,3.2421 -13.786,4.8632 l -5.769,-1.8632 c -2.977,-0.1485 -4.602,-3.7579 -6.277,-5.7969 -1.25,-0.5196 -2.5,-1.043 -3.75,-1.5664 -3.129,-0.3242 -6.047,0.4336 -8.532,1.7265 v 1.6407 c -1.066,0.5546 -2.133,1.1054 -3.203,1.6562 -2.414,2.6641 -1.375,2.0977 -4.16,4.6094 -0.375,2.2851 0.93,2.8437 2.547,3.9023 3.902,0.9844 7.805,1.9727 11.707,2.9571 0.816,0.375 1.637,0.7539 2.453,1.1288 1.082,1.516 2.164,3.031 3.242,4.543 0.996,0.387 1.992,0.773 2.989,1.16 l 10.476,0.309 10.481,0.308 6.523,6.418 6.527,6.422 8.141,0.156 8.144,0.161 4.606,7.644 4.609,7.649 10.118,16.707 11.867,20.562 c 0.312,0.547 0.793,0.719 1.113,0.676 6.578,-10.945 14.637,-24.086 20.309,-33.836 L 230.504,97.9922 c -4.152,-12.6484 -8.301,-25.2969 -12.453,-37.9453 -1.5,-4.1446 -3.457,-13.0391 -6.496,-13.3086 z m -14.629,0.2812 v 33.6836 h -1.297 L 178.039,63.75 160.809,80.7031 h -1.981 V 46.875 Z m -41.571,-3.3632 v 40.414 l 7.438,0.082 15.246,-14.7617 15.816,14.7266 h 7.032 V 43.6211 l -45.532,0.0352"
         style="fill:#000000;fill-opacity:1;fill-rule:nonzero;stroke:none"
         id="path957" /></g></g></svg>
