<?xml version="1.0" encoding="UTF-8" standalone="no"?>
<!-- Generator: Adobe Illustrator 24.0.2, SVG Export Plug-In . SVG Version: 6.00 Build 0)  -->

<svg
   version="1.0"
   id="Layer_1"
   x="0px"
   y="0px"
   width="10.1mm"
   height="9mm"
   viewBox="0 0 38.17323 34.015748"
   xml:space="preserve"
   sodipodi:docname="warning_roll_icon.svg"
   inkscape:version="1.1.1 (3bf5ae0d25, 2021-09-20)"
   xmlns:inkscape="http://www.inkscape.org/namespaces/inkscape"
   xmlns:sodipodi="http://sodipodi.sourceforge.net/DTD/sodipodi-0.dtd"
   xmlns="http://www.w3.org/2000/svg"
   xmlns:svg="http://www.w3.org/2000/svg"><defs
   id="defs7451">
	
	
	
</defs><sodipodi:namedview
   id="namedview7449"
   pagecolor="#ffffff"
   bordercolor="#666666"
   borderopacity="1.0"
   inkscape:pageshadow="2"
   inkscape:pageopacity="0.0"
   inkscape:pagecheckerboard="0"
   showgrid="false"
   units="mm"
   inkscape:zoom="16.284502"
   inkscape:cx="29.997848"
   inkscape:cy="23.549999"
   inkscape:window-width="1920"
   inkscape:window-height="1017"
   inkscape:window-x="-8"
   inkscape:window-y="-8"
   inkscape:window-maximized="1"
   inkscape:current-layer="Layer_1"
   inkscape:document-units="mm" />
<style
   type="text/css"
   id="style7423">
	.st0{fill:#F9A800;stroke:#000000;stroke-width:3.3053;stroke-miterlimit:10;}
	.st1{fill-rule:evenodd;clip-rule:evenodd;}
	.st2{fill-rule:evenodd;clip-rule:evenodd;fill:#F9A800;}
	.st3{fill:none;stroke:#000000;stroke-width:0.5675;stroke-linecap:round;stroke-linejoin:round;}
	.st4{fill:none;stroke:#000000;stroke-width:0.3783;stroke-linecap:round;stroke-linejoin:round;}
	.st5{fill:none;}
</style>
<g
   id="triangle_copy"
   transform="matrix(0.77199853,0,0,0.77199853,-4.0487973,-1.275775)">
		<g
   id="g7427">
			<path
   class="st0"
   d="M 28.8,4.3 7.3,41.4 c -0.5,0.9 0.1,2.1 1.2,2.1 h 42.9 c 1.1,0 1.8,-1.2 1.2,-2.1 L 31.2,4.3 c -0.5,-1 -1.9,-1 -2.4,0 z"
   id="path7425" />
		</g>
	</g><g
   id="rollers"
   transform="matrix(0.77199853,0,0,0.77199853,-4.0487973,-1.275775)">
		<polygon
   class="st1"
   points="34.3,16.1 34.4,16.3 34.5,16.5 34.5,16.7 34.6,17 34.7,17.2 34.7,17.4 34.8,17.6 34.8,17.8 34.8,18.1 34.8,18.3 34.8,18.5 34.8,18.7 34.8,19 34.7,19.2 34.7,19.4 34.6,19.6 34.5,19.8 34.5,20 34.4,20.2 34.3,20.4 34.2,20.6 34,20.8 33.9,21 33.8,21.2 33.6,21.3 33.5,21.5 33.3,21.6 33.2,21.8 33,21.9 32.8,22 32.6,22.1 32.5,22.3 32.3,22.4 32.1,22.4 31.9,22.5 31.6,22.6 31.4,22.7 31.2,22.7 31,22.7 30.8,22.8 30.5,22.8 30.3,22.8 30.1,22.8 29.9,22.8 29.6,22.7 29.4,22.7 29.2,22.7 29,22.6 28.8,22.5 28.6,22.4 28.4,22.4 28.2,22.3 28,22.1 27.8,22 27.6,21.9 27.4,21.8 27.3,21.6 27.1,21.5 27,21.3 26.8,21.2 26.7,21 26.6,20.8 26.5,20.6 26.3,20.4 26.2,20.2 26.2,20 26.1,19.8 26,19.6 25.9,19.4 25.9,19.2 25.9,19 25.8,18.7 25.8,18.5 25.8,18.3 25.8,18.1 25.8,17.8 25.9,17.6 25.9,17.4 25.9,17.2 26,17 26.1,16.7 26.2,16.5 26.2,16.3 26.3,16.1 26.5,16 26.6,15.8 26.7,15.6 26.8,15.4 27,15.3 27.1,15.1 27.3,15 27.4,14.8 27.6,14.7 27.8,14.6 28,14.4 28.2,14.3 28.4,14.2 28.6,14.1 28.8,14.1 29,14 29.2,13.9 29.4,13.9 29.6,13.8 29.9,13.8 30.1,13.8 30.3,13.8 30.5,13.8 30.8,13.8 31,13.8 31.2,13.9 31.4,13.9 31.6,14 31.9,14.1 32.1,14.1 32.3,14.2 32.5,14.3 32.6,14.4 32.8,14.6 33,14.7 33.2,14.8 33.3,15 33.5,15.1 33.6,15.3 33.8,15.4 33.9,15.6 34,15.8 34.2,16 "
   id="polygon7430" />
		<polygon
   class="st1"
   points="37.6,27.5 37.8,27.9 38,28.3 38.1,28.6 38.2,29 38.4,29.4 38.4,29.8 38.5,30.2 38.6,30.6 38.6,31 38.6,31.5 38.6,31.9 38.6,32.3 38.5,32.7 38.4,33.1 38.4,33.5 38.2,33.9 38.1,34.3 38,34.7 37.8,35 37.6,35.4 37.4,35.7 37.2,36 37,36.4 36.7,36.7 36.5,37 36.2,37.3 35.9,37.5 35.6,37.8 35.3,38 35,38.3 34.7,38.5 34.3,38.7 34,38.9 33.6,39 33.2,39.2 32.8,39.3 32.4,39.4 32.1,39.5 31.6,39.6 31.2,39.6 30.8,39.7 30.4,39.7 30,39.7 29.6,39.6 29.2,39.6 28.7,39.5 28.3,39.4 28,39.3 27.6,39.2 27.2,39 26.8,38.9 26.5,38.7 26.1,38.5 25.8,38.3 25.5,38 25.2,37.8 24.9,37.5 24.6,37.3 24.3,37 24.1,36.7 23.8,36.4 23.6,36 23.4,35.7 23.2,35.4 23,35 22.8,34.7 22.7,34.3 22.6,33.9 22.4,33.5 22.4,33.1 22.3,32.7 22.2,32.3 22.2,31.9 22.2,31.5 22.2,31 22.2,30.6 22.3,30.2 22.4,29.8 22.4,29.4 22.6,29 22.7,28.6 22.8,28.3 23,27.9 23.2,27.5 23.4,27.2 23.6,26.9 23.8,26.5 24.1,26.2 24.3,25.9 24.6,25.7 24.9,25.4 25.2,25.1 25.5,24.9 25.8,24.7 26.1,24.4 26.5,24.2 26.8,24.1 27.2,23.9 27.6,23.7 28,23.6 28.3,23.5 28.7,23.4 29.2,23.3 29.6,23.3 30,23.3 30.4,23.2 30.8,23.3 31.2,23.3 31.6,23.3 32.1,23.4 32.4,23.5 32.8,23.6 33.2,23.7 33.6,23.9 34,24.1 34.3,24.2 34.7,24.4 35,24.7 35.3,24.9 35.6,25.1 35.9,25.4 36.2,25.7 36.5,25.9 36.7,26.2 37,26.5 37.2,26.9 37.4,27.2 "
   id="polygon7432" />
		<circle
   class="st2"
   cx="30.299999"
   cy="18.299999"
   id="ellipse7434"
   r="3.2" />
		<circle
   class="st2"
   cx="30.5"
   cy="31.4"
   id="ellipse7436"
   r="6.9000001" />
		<path
   class="st3"
   d="m 25.1,28.4 3.5,-1.2 -1.1,3.7 m 1.2,-3.7 c -4.4,3.8 -3.6,6.7 0,9.3"
   id="path7438" />
		<path
   class="st4"
   d="M 29.2,18.3 29.7,20 28,19.5 m 1.6,-3.3 c -1.3,0.9 -2,2.5 0,3.8"
   id="path7440" />
	</g>

</svg>
