<?xml version="1.0" encoding="UTF-8" standalone="no"?>
<!-- Generator: Adobe Illustrator 25.3.1, SVG Export Plug-In . SVG Version: 6.00 Build 0)  -->

<svg
   version="1.1"
   id="svg182"
   inkscape:version="1.1.1 (3bf5ae0d25, 2021-09-20)"
   sodipodi:docname="warning_battery_icon.svg"
   x="0px"
   y="0px"
   width="10.1mm"
   height="9mm"
   viewBox="0 0 38.17323 34.015748"
   xml:space="preserve"
   xmlns:inkscape="http://www.inkscape.org/namespaces/inkscape"
   xmlns:sodipodi="http://sodipodi.sourceforge.net/DTD/sodipodi-0.dtd"
   xmlns="http://www.w3.org/2000/svg"
   xmlns:svg="http://www.w3.org/2000/svg"><defs
   id="defs4006" /><sodipodi:namedview
   id="namedview4004"
   pagecolor="#ffffff"
   bordercolor="#666666"
   borderopacity="1.0"
   inkscape:pageshadow="2"
   inkscape:pageopacity="0.0"
   inkscape:pagecheckerboard="0"
   showgrid="false"
   units="mm"
   inkscape:zoom="16.284502"
   inkscape:cx="29.997848"
   inkscape:cy="23.549999"
   inkscape:window-width="1920"
   inkscape:window-height="1017"
   inkscape:window-x="-8"
   inkscape:window-y="-8"
   inkscape:window-maximized="1"
   inkscape:current-layer="svg182"
   inkscape:document-units="mm" />
<style
   type="text/css"
   id="style3987">
	.st0{fill:#F9A800;stroke:#000000;stroke-width:3.3053;stroke-miterlimit:10;}
	.st1{display:none;stroke:#000000;stroke-width:1.6629;stroke-miterlimit:10;}
	.st2{fill:none;}
	.st3{fill:none;stroke:#000000;stroke-width:0.7071;stroke-miterlimit:10;}
</style>
<g
   id="triangle_copy"
   transform="matrix(0.77199853,0,0,0.77199853,-4.0487973,-1.275775)">
	<g
   id="g13">
		<path
   id="path9"
   class="st0"
   d="M 28.8,4.3 7.3,41.4 c -0.5,0.9 0.1,2.1 1.2,2.1 h 42.9 c 1.1,0 1.8,-1.2 1.2,-2.1 L 31.2,4.3 c -0.5,-1 -1.9,-1 -2.4,0 z" />
		<path
   id="path11"
   class="st1"
   d="m 30,33.9 c 0.5,0 0.9,0.2 1.3,0.5 0.3,0.3 0.5,0.8 0.5,1.3 0,0.5 -0.2,0.9 -0.5,1.3 -0.4,0.3 -0.8,0.5 -1.3,0.5 -0.5,0 -0.9,-0.2 -1.3,-0.5 -0.4,-0.3 -0.5,-0.8 -0.5,-1.3 0,-0.5 0.2,-0.9 0.5,-1.3 0.4,-0.3 0.8,-0.5 1.3,-0.5 z M 29.4,30.8 28.3,18.1 c 0,-0.4 -0.1,-0.6 -0.1,-0.7 0,-0.7 0.2,-1.2 0.5,-1.5 0.3,-0.3 0.8,-0.5 1.3,-0.5 0.5,0 0.9,0.2 1.2,0.5 0.3,0.3 0.5,0.7 0.5,1.3 0,0.2 0,0.5 -0.1,0.9 L 30.5,31 h -1.1 z" />
	</g>
</g>

<g
   id="g4345"
   transform="matrix(0.06162427,0,0,0.06162427,42.076496,0.43981068)">
	<g
   id="g2853"
   transform="matrix(1.079838,0,0,1.079838,6.9109,-9.025744)">
		<path
   id="path1936"
   class="st3"
   d="m -345,132.2 c 0,0 27.8,44.7 -19.6,66.7 -18.6,8.6 -43.4,15.1 -21.4,57.5" />
		<path
   id="path1940"
   class="st3"
   d="m -362.7,165.6 c 2.1,22.5 48.3,16 50,43.2 1.7,26.8 -33.5,29.5 -55.1,27.5 -67.6,-6.1 -50.7,28.9 -13.6,22" />
	</g>
	<g
   id="g1961"
   transform="matrix(1.079838,0,0,1.079838,6.9109,-9.025744)">
		<path
   id="rect1934"
   d="m -322.5,276.8 v 14.8 h -64.1 V 277 h -26.2 v 14.5 h -31.3 v 110.8 h 88 c 2.6,2.9 5.9,6.5 7.7,11.3 4.9,13.1 22.9,17.7 38.8,17.2 43.9,-1.4 28,2.8 50.5,6.7 16.1,2.7 14.7,11.9 59.9,7.8 11.5,-1.1 18.3,-8.2 17.5,-15.8 -2.1,-18.8 -21.6,-9.1 -21.7,-28.8 0,-14.9 -5.2,-19.5 -16.1,-19.4 -31,0.4 -34.9,3 -36.3,-21.7 0,0 0,0 0,0 v -68 h -0.6 c -0.5,-10.2 -3.3,-10.5 -9.1,-10.5 h -26.8 c -4.2,0.2 -5,-4.2 -5,-4.2 h -25.2 z M -433.7,303 h 157.3 v 87.9 h -157.3 z" />
		<rect
   id="rect1942"
   x="-318"
   y="322.60001"
   width="34.400002"
   height="10.1" />
		<path
   id="rect1944"
   d="m -414.1,310.4 v 12.2 h -12.2 v 10.1 h 12.2 v 12.2 h 10.1 v -12.2 h 12.2 V 322.6 H -404 v -12.2 z" />
	</g>
</g>
</svg>
