<?xml version="1.0" encoding="UTF-8" standalone="no"?>
<!-- Generator: Adobe Illustrator 25.3.1, SVG Export Plug-In . SVG Version: 6.00 Build 0)  -->

<svg
   version="1.1"
   id="svg182"
   inkscape:version="1.1.1 (3bf5ae0d25, 2021-09-20)"
   sodipodi:docname="warning_autostart_icon.svg"
   x="0px"
   y="0px"
   width="10.1mm"
   height="9mm"
   viewBox="0 0 38.17323 34.015748"
   xml:space="preserve"
   xmlns:inkscape="http://www.inkscape.org/namespaces/inkscape"
   xmlns:sodipodi="http://sodipodi.sourceforge.net/DTD/sodipodi-0.dtd"
   xmlns="http://www.w3.org/2000/svg"
   xmlns:svg="http://www.w3.org/2000/svg"><defs
   id="defs3708" /><sodipodi:namedview
   id="namedview3706"
   pagecolor="#ffffff"
   bordercolor="#666666"
   borderopacity="1.0"
   inkscape:pageshadow="2"
   inkscape:pageopacity="0.0"
   inkscape:pagecheckerboard="0"
   showgrid="false"
   units="mm"
   inkscape:zoom="16.284502"
   inkscape:cx="29.997848"
   inkscape:cy="23.549999"
   inkscape:window-width="1920"
   inkscape:window-height="1017"
   inkscape:window-x="-8"
   inkscape:window-y="-8"
   inkscape:window-maximized="1"
   inkscape:current-layer="svg182"
   inkscape:document-units="mm" />
<style
   type="text/css"
   id="style3695">
	.st0{fill:#F9A800;stroke:#000000;stroke-width:3.3053;stroke-miterlimit:10;}
	.st1{display:none;stroke:#000000;stroke-width:1.6629;stroke-miterlimit:10;}
	.st2{fill:none;}
</style>
<g
   id="triangle_copy"
   transform="matrix(0.77199853,0,0,0.77199853,-4.0487973,-1.275775)">
	<g
   id="g13">
		<path
   id="path9"
   class="st0"
   d="M 28.8,4.3 7.3,41.4 c -0.5,0.9 0.1,2.1 1.2,2.1 h 42.9 c 1.1,0 1.8,-1.2 1.2,-2.1 L 31.2,4.3 c -0.5,-1 -1.9,-1 -2.4,0 z" />
		<path
   id="path11"
   class="st1"
   d="m 30,33.9 c 0.5,0 0.9,0.2 1.3,0.5 0.3,0.3 0.5,0.8 0.5,1.3 0,0.5 -0.2,0.9 -0.5,1.3 -0.4,0.3 -0.8,0.5 -1.3,0.5 -0.5,0 -0.9,-0.2 -1.3,-0.5 -0.4,-0.3 -0.5,-0.8 -0.5,-1.3 0,-0.5 0.2,-0.9 0.5,-1.3 0.4,-0.3 0.8,-0.5 1.3,-0.5 z M 29.4,30.8 28.3,18.1 c 0,-0.4 -0.1,-0.6 -0.1,-0.7 0,-0.7 0.2,-1.2 0.5,-1.5 0.3,-0.3 0.8,-0.5 1.3,-0.5 0.5,0 0.9,0.2 1.2,0.5 0.3,0.3 0.5,0.7 0.5,1.3 0,0.2 0,0.5 -0.1,0.9 L 30.5,31 h -1.1 z" />
	</g>
</g>

<path
   d="m 21.581554,14.627394 -0.308799,0.771999 c 2.084396,0.463199 3.628393,2.315995 3.628393,4.554791 0,2.084396 -1.389598,3.859993 -3.242394,4.477592 0.849198,-0.617599 1.389597,-1.543997 1.543997,-2.701995 0,-0.0772 0,-0.1544 0,-0.1544 0,0 0,0 0,0 0,0 0,0 0,0 0,-0.0772 0,-0.0772 0,-0.1544 0,-0.0772 0,-0.0772 0,-0.154399 0,-0.0772 0,-0.1544 0,-0.2316 0,-0.0772 0,-0.1544 0,-0.1544 0,0 0,0 0,0 0,0 0,0 0,0 0,-0.0772 0,-0.0772 0,-0.154399 -0.0772,-0.771999 -0.308799,-1.621197 -0.694799,-2.315996 -1.543997,-2.624795 -4.86359,-3.551193 -7.488385,-2.007196 -2.161596,1.235198 -3.165194,3.782793 -2.547596,6.175988 l 0.771999,-0.1544 c -0.617599,-2.007196 0.2316,-4.323191 2.161596,-5.403989 1.775596,-1.003598 4.014392,-0.771999 5.481189,0.617599 -0.617598,-0.2316 -1.235197,-0.3088 -1.929996,-0.3088 0,0 0,0 -0.0772,0 0,0 -0.0772,0 -0.0772,0 -0.0772,0 -0.154399,0 -0.154399,0 -0.1544,0 -0.2316,0.0772 -0.386,0.0772 v 0 c -0.154399,0.0772 -0.231599,0.0772 -0.308799,0.1544 0,0 0,0 0,0 -0.1544,0.0772 -0.385999,0.154399 -0.540399,0.231599 -0.0772,0 -0.1544,0.0772 -0.1544,0.1544 -0.771998,0.463199 -1.389597,1.080798 -1.852796,1.929996 -1.543997,2.624795 -0.617599,6.021589 2.007196,7.488386 2.161596,1.235198 4.863591,0.849198 6.639187,-0.849198 L 23.51155,25.898573 c -1.466797,1.543997 -3.859992,1.929996 -5.712789,0.849198 -1.775596,-1.003598 -2.624795,-3.087994 -2.238795,-5.01799 0.0772,0.463199 0.231599,1.003598 0.463199,1.466797 0.154399,0.308799 0.385999,0.617599 0.617598,0.849198 0,0 0,0 0,0 v 0 c 0.1544,0.0772 0.2316,0.2316 0.386,0.3088 0,0 0,0 0,0 0,0 0,0 0,0 0.154399,0.0772 0.231599,0.154399 0.385999,0.231599 0,0 0.0772,0.0772 0.0772,0.0772 0.771998,0.463199 1.698397,0.694799 2.701995,0.694799 3.010794,0 5.481189,-2.470395 5.481189,-5.48119 -0.0772,-2.470395 -1.775596,-4.631991 -4.091592,-5.24959 z m -2.315996,3.628393 c 1.621197,0 3.010795,1.312398 3.010795,3.010795 0,0.540399 -0.1544,1.003598 -0.386,1.389597 0,0.0772 -0.0772,0.0772 -0.0772,0.0772 0,0 0,0 0,0 0,0 0,0 0,0 0,0 0,0.0772 -0.0772,0.0772 0,0 0,0 0,0 0,0 0,0 0,0.0772 -0.849199,1.235197 -2.547595,1.621196 -3.937193,0.849198 -1.312397,-0.771999 -1.852796,-2.315996 -1.312397,-3.705593 0,-0.0772 0.0772,-0.1544 0.154399,-0.308799 0,0 0,-0.0772 0.0772,-0.0772 0,0 0,0 0,0 0,0 0,0 0,-0.0772 0,0 0.0772,-0.0772 0.0772,-0.0772 0,0 0,0 0,0 0,0 0,0 0,0 0,0 0.0772,-0.0772 0.0772,-0.0772 0,0 0.0772,-0.0772 0.0772,-0.0772 0,0 0,0 0,0 0,0 0,0 0.0772,-0.0772 0,0 0,-0.0772 0.0772,-0.0772 0,0 0.0772,-0.0772 0.0772,-0.0772 0.0772,-0.0772 0.1544,-0.1544 0.2316,-0.2316 0,0 0.0772,-0.0772 0.0772,-0.0772 0.463199,-0.308799 1.080798,-0.540399 1.775596,-0.540399 z"
   id="path3703"
   style="stroke-width:0.771999" />
</svg>
