<?xml version="1.0" encoding="UTF-8" standalone="no"?>
<!-- Generator: Adobe Illustrator 25.3.1, SVG Export Plug-In . SVG Version: 6.00 Build 0)  -->

<svg
   version="1.1"
   id="Layer_1"
   x="0px"
   y="0px"
   width="10.1mm"
   height="9mm"
   viewBox="0 0 38.17323 34.015748"
   xml:space="preserve"
   sodipodi:docname="warning_heavy_icon.svg"
   inkscape:version="1.1.1 (3bf5ae0d25, 2021-09-20)"
   xmlns:inkscape="http://www.inkscape.org/namespaces/inkscape"
   xmlns:sodipodi="http://sodipodi.sourceforge.net/DTD/sodipodi-0.dtd"
   xmlns="http://www.w3.org/2000/svg"
   xmlns:svg="http://www.w3.org/2000/svg"><defs
   id="defs6221" /><sodipodi:namedview
   id="namedview6219"
   pagecolor="#ffffff"
   bordercolor="#666666"
   borderopacity="1.0"
   inkscape:pageshadow="2"
   inkscape:pageopacity="0.0"
   inkscape:pagecheckerboard="0"
   showgrid="false"
   units="mm"
   inkscape:zoom="16.284502"
   inkscape:cx="29.997848"
   inkscape:cy="23.549999"
   inkscape:window-width="1920"
   inkscape:window-height="1017"
   inkscape:window-x="-8"
   inkscape:window-y="-8"
   inkscape:window-maximized="1"
   inkscape:current-layer="Layer_1"
   inkscape:document-units="mm" />
<style
   type="text/css"
   id="style6187">
	.st0{fill:#F9A800;stroke:#000000;stroke-width:3.3053;stroke-miterlimit:10;}
	.st1{display:none;stroke:#000000;stroke-width:1.6629;stroke-miterlimit:10;}
	.st2{fill:none;stroke:#000000;stroke-width:2.0589;stroke-linecap:round;stroke-linejoin:round;stroke-miterlimit:10;}
	.st3{fill:none;stroke:#000000;stroke-width:3.2599;stroke-linecap:round;stroke-linejoin:round;stroke-miterlimit:10;}
	.st4{fill:none;stroke:#000000;stroke-width:2.4021;stroke-linecap:round;stroke-linejoin:round;stroke-miterlimit:10;}
	.st5{fill:none;stroke:#000000;stroke-width:0.5147;stroke-linejoin:round;stroke-miterlimit:10;}
	.st6{fill:none;}
</style>
<g
   id="triangle_copy"
   transform="matrix(0.77199853,0,0,0.77199853,-4.0487973,-1.275775)">
	<g
   id="g6193">
		<path
   class="st0"
   d="M 28.8,4.3 7.3,41.4 c -0.5,0.9 0.1,2.1 1.2,2.1 h 42.9 c 1.1,0 1.8,-1.2 1.2,-2.1 L 31.2,4.3 c -0.5,-1 -1.9,-1 -2.4,0 z"
   id="path6189" />
		<path
   class="st1"
   d="m 30,33.9 c 0.5,0 0.9,0.2 1.3,0.5 0.3,0.3 0.5,0.8 0.5,1.3 0,0.5 -0.2,0.9 -0.5,1.3 -0.4,0.3 -0.8,0.5 -1.3,0.5 -0.5,0 -0.9,-0.2 -1.3,-0.5 -0.4,-0.3 -0.5,-0.8 -0.5,-1.3 0,-0.5 0.2,-0.9 0.5,-1.3 0.4,-0.3 0.8,-0.5 1.3,-0.5 z M 29.4,30.8 28.3,18.1 c 0,-0.4 -0.1,-0.6 -0.1,-0.7 0,-0.7 0.2,-1.2 0.5,-1.5 0.3,-0.3 0.8,-0.5 1.3,-0.5 0.5,0 0.9,0.2 1.2,0.5 0.3,0.3 0.5,0.7 0.5,1.3 0,0.2 0,0.5 -0.1,0.9 L 30.5,31 h -1.1 z"
   id="path6191" />
	</g>
</g>
<g
   id="lift"
   transform="matrix(0.77199853,0,0,0.77199853,-4.0487973,-1.275775)">
	<g
   id="g6212">
		<line
   class="st2"
   x1="24.9"
   y1="30.9"
   x2="28.1"
   y2="22.799999"
   id="line6196" />
		<path
   d="m 24,28.9 -0.6,1.4 c -0.3,0.8 0.1,1.7 0.8,2 0.2,0.1 0.4,0.1 0.6,0.1 0.6,0 1.2,-0.4 1.4,-1 l 1.1,-2.6 H 29 V 40.2 H 18.7 V 28.9 Z"
   id="path6198" />
		<polyline
   class="st3"
   points="32.8,39 31.3,32.9 35.7,26.4 28.6,23.2   "
   id="polyline6200" />
		<circle
   cx="24.5"
   cy="22.200001"
   r="2.0999999"
   id="circle6202" />
		<line
   class="st4"
   x1="34.599998"
   y1="27.9"
   x2="27.799999"
   y2="24.9"
   id="line6204" />
		<line
   class="st5"
   x1="34.200001"
   y1="23.200001"
   x2="33.200001"
   y2="20.799999"
   id="line6206" />
		<line
   class="st5"
   x1="35.200001"
   y1="23.6"
   x2="36.099998"
   y2="21.200001"
   id="line6208" />
		<line
   class="st5"
   x1="36"
   y1="24"
   x2="38.400002"
   y2="22.9"
   id="line6210" />
	</g>
</g>

</svg>
