<?xml version="1.0" encoding="UTF-8" standalone="no"?>
<!-- Generator: Adobe Illustrator 25.2.2, SVG Export Plug-In . SVG Version: 6.00 Build 0)  -->

<svg
   version="1.1"
   id="Layer_1"
   x="60px"
   y="47.1px"
   width="10.1mm"
   height="9mm"
   viewBox="0 0 38.17323 34.015748"
   xml:space="preserve"
   sodipodi:docname="warning_fire_icon.svg"
   inkscape:version="1.1.1 (3bf5ae0d25, 2021-09-20)"
   xmlns:inkscape="http://www.inkscape.org/namespaces/inkscape"
   xmlns:sodipodi="http://sodipodi.sourceforge.net/DTD/sodipodi-0.dtd"
   xmlns="http://www.w3.org/2000/svg"
   xmlns:svg="http://www.w3.org/2000/svg"><defs
   id="defs5584" /><sodipodi:namedview
   id="namedview5582"
   pagecolor="#ffffff"
   bordercolor="#666666"
   borderopacity="1.0"
   inkscape:pageshadow="2"
   inkscape:pageopacity="0.0"
   inkscape:pagecheckerboard="0"
   showgrid="false"
   units="mm"
   inkscape:zoom="16.284502"
   inkscape:cx="29.997848"
   inkscape:cy="23.549999"
   inkscape:window-width="1920"
   inkscape:window-height="1017"
   inkscape:window-x="-8"
   inkscape:window-y="-8"
   inkscape:window-maximized="1"
   inkscape:current-layer="Layer_1"
   inkscape:document-units="mm" />
<style
   type="text/css"
   id="style5574">
	.st0{fill:#F9A800;stroke:#000000;stroke-width:3.31;stroke-miterlimit:10;}
	.st1{fill:none;}
</style>
<path
   class="st0"
   d="M 18.187467,2.0346124 1.5969056,30.662977 c -0.3086617,0.540158 -0.077165,1.157481 0.385827,1.466143 0,0 0,0 0,0 0.1543308,0.07717 0.3086616,0.15433 0.5401578,0.15433 H 35.626848 c 0.617324,0 1.080316,-0.462992 1.080316,-1.00315 0,0 0,0 0,0 0,-0.231496 -0.07717,-0.385827 -0.154331,-0.617323 L 20.039437,2.0346124 C 19.80794,1.4944545 19.190617,1.3401237 18.650459,1.5716199 18.418963,1.6487853 18.264632,1.8031162 18.187467,2.0346124 Z"
   id="path5576" />

<path
   id="path3526"
   d="m 16.335497,25.955887 c -1.466142,-0.617323 -2.0063,-1.851969 -2.160631,-4.707089 -0.07717,-1.157481 -0.07717,-2.083466 0,-2.083466 0.07717,0 0.231496,0.07716 0.462992,0.154331 0.308662,0.15433 0.385827,0.07717 0.540158,-0.771655 0.07717,-0.540157 0.231496,-1.311811 0.308662,-1.774804 l 0.07717,-0.771654 0.617323,0.617323 0.617324,0.617324 0.154331,-1.388978 c 0.07717,-0.771654 0.07717,-1.620473 0,-2.0063 -0.154331,-0.540158 -0.07717,-0.617323 0.231496,-0.385827 0.231496,0.07716 0.462992,0.385827 0.540158,0.540158 0.385827,0.694488 0.540157,0.385827 0.540157,-0.925985 0,-0.771654 0.07717,-1.388978 0.231497,-1.620474 0.231496,-0.308661 0.231496,-0.308661 0.385827,0.154331 0.07716,0.308662 0.462992,0.925985 0.925984,1.466143 0.462993,0.540158 0.84882,1.157481 0.84882,1.388977 l 0.07717,0.462992 v -0.540157 c 0,-0.617324 0.231497,-0.617324 0.84882,0 0.385827,0.462992 0.617323,1.080315 1.00315,2.700789 0.154331,0.540158 0.154331,0.540158 0.308662,0.154331 0.231496,-0.540158 0.385827,-0.540158 0.694488,0 0.308662,0.540157 0.308662,1.466142 0.154331,3.086616 -0.154331,1.080315 -0.07717,1.157481 0.154331,0.848819 0.231496,-0.308661 0.308662,-0.308661 0.385827,0.385827 0.154331,0.925985 -0.154331,2.160632 -0.771654,2.932286 -0.617323,0.771654 -2.083466,1.466142 -3.240947,1.466142 -1.080316,0 -1.234647,-0.231496 -0.462993,-0.694488 0.694489,-0.462993 1.466143,-1.311812 1.85197,-2.314962 0.308662,-0.694489 0.308662,-0.694489 -0.07716,-0.617324 -0.308662,0.07717 -0.308662,0 -0.308662,-0.771654 l 0.07717,-0.848819 -0.462993,0.694488 c -0.617323,0.84882 -0.848819,0.84882 -0.617323,0 0.231496,-0.848819 0.07716,-2.0063 -0.462993,-2.777954 -0.231496,-0.308662 -0.385827,-0.617323 -0.462992,-0.617323 0,0 -0.07717,0.694488 -0.07717,1.543308 0,1.466142 -0.231497,2.546458 -0.540158,2.546458 -0.07717,0 -0.308662,-0.308662 -0.462993,-0.694489 L 17.955985,20.70864 v 0.617323 c 0,0.385827 0,0.925985 0,1.234647 0,0.308661 -0.07717,0.617323 -0.154331,0.617323 -0.308662,0 -0.771654,-0.771654 -0.848819,-1.543308 -0.154331,-0.771654 -0.385828,-0.925985 -0.462993,-0.308662 -0.07717,0.848819 -0.07717,1.00315 -0.308662,0.925985 -0.540157,-0.07717 0.231497,1.85197 1.080316,2.777954 0.308662,0.385827 0.540158,0.694489 0.540158,0.771654 0.07716,0.462993 -0.848819,0.385828 -1.466143,0.154331 z M 12.0914,28.502346 v -1.543308 h 14.044104 v 1.543308 z"
   style="stroke-width:0.771654" />
</svg>
