<?xml version="1.0" encoding="UTF-8" standalone="no"?>
<!-- Created with Inkscape (http://www.inkscape.org/) -->

<svg
   version="1.1"
   id="svg1032"
   xml:space="preserve"
   width="10mm"
   height="8.8999996mm"
   viewBox="0 0 37.795277 33.637793"
   sodipodi:docname="warning_movecrush_icon.svg"
   inkscape:version="1.1.1 (3bf5ae0d25, 2021-09-20)"
   xmlns:inkscape="http://www.inkscape.org/namespaces/inkscape"
   xmlns:sodipodi="http://sodipodi.sourceforge.net/DTD/sodipodi-0.dtd"
   xmlns="http://www.w3.org/2000/svg"
   xmlns:svg="http://www.w3.org/2000/svg"><defs
     id="defs1036" /><sodipodi:namedview
     id="namedview1034"
     pagecolor="#ffffff"
     bordercolor="#666666"
     borderopacity="1.0"
     inkscape:pageshadow="2"
     inkscape:pageopacity="0.0"
     inkscape:pagecheckerboard="0"
     showgrid="false"
     units="mm"
     inkscape:zoom="17.29474"
     inkscape:cx="26.45313"
     inkscape:cy="20.786667"
     inkscape:window-width="1920"
     inkscape:window-height="1017"
     inkscape:window-x="-8"
     inkscape:window-y="-8"
     inkscape:window-maximized="1"
     inkscape:current-layer="g1038"
     inkscape:document-units="mm" /><g
     id="g1038"
     inkscape:groupmode="layer"
     inkscape:label="ink_ext_XXXXXX"
     transform="matrix(1.3333333,0,0,-1.3333333,0,41.573333)"><g
       id="g1040"
       transform="matrix(0.0889981,0,0,0.0889981,-3.4862094,4.7604054)"><path
         d="M 186.152,280.082 50.9453,45.8984 C 45.4883,36.4531 52.3086,24.6406 63.2188,24.6406 H 333.633 c 10.91,0 17.726,11.8125 12.273,21.2578 L 210.699,280.082 c -5.457,9.449 -19.094,9.449 -24.547,0"
         style="fill:#f9a800;fill-opacity:1;fill-rule:nonzero;stroke:none"
         id="path1042" /><path
         d="M 186.152,280.082 50.9453,45.8984 C 45.4883,36.4531 52.3086,24.6406 63.2188,24.6406 H 333.633 c 10.91,0 17.726,11.8125 12.273,21.2578 L 210.699,280.082 c -5.457,9.449 -19.094,9.449 -24.547,0 z"
         style="fill:none;stroke:#000000;stroke-width:20;stroke-linecap:butt;stroke-linejoin:miter;stroke-miterlimit:10;stroke-dasharray:none;stroke-opacity:1"
         id="path1044" /><path
         d="m 117.762,79.1797 v 3.8476 H 98.4844 v 8.7618 H 108 h 9.516 l 0.562,3.625 0.559,3.625 5.703,-5.9024 5.699,-5.9062 -6.141,-5.9492 -6.136,-5.9493 v 3.8477 0"
         style="fill:#000000;fill-opacity:1;fill-rule:nonzero;stroke:none"
         id="path1046" /><path
         d="m 267.152,81.6836 -5.699,5.9023 6.141,5.9532 6.136,5.9492 v -3.8477 -3.8515 h 10.516 10.516 v -4.3789 -4.3829 h -10.395 -10.39 l -0.325,-7.8867 -6.5,6.543"
         style="fill:#000000;fill-opacity:1;fill-rule:nonzero;stroke:none"
         id="path1048" /><path
         d="M 233.703,77.832 V 66.5 l 15.012,-16.375 h 5.488 l 1.75,5.3867 z m -0.16,27.695 V 91.7852 c 0,0 22.41,-22.3204 22.57,-21.5235 v 13.7422 z m 8.84,20.047 h -8.578 v -5.183 L 256.055,99.5 v 13.723 z m 29.953,4.723 2.391,-4.992 h -14.598 l -0.32,-75.18 h 59.621 l 0.105,-4.7734 h -90.254 l -1.023,84.9454 h 44.078"
         style="fill:#000000;fill-opacity:1;fill-rule:nonzero;stroke:none"
         id="path1050" /><path
         d="M 157.652,77.832 V 66.5 L 142.641,50.125 h -5.489 l -1.75,5.3867 z m 0.161,27.695 V 91.7852 c 0,0 -22.411,-22.3204 -22.571,-21.5235 v 13.7422 z m -8.84,20.047 h 8.578 v -5.183 L 135.301,99.5 v 13.723 z m -29.953,4.723 -2.391,-4.992 h 14.598 l 0.32,-75.18 H 71.9258 l -0.1055,-4.7734 h 90.2537 l 1.024,84.9454 H 119.02"
         style="fill:#000000;fill-opacity:1;fill-rule:nonzero;stroke:none"
         id="path1052" /><path
         d="m 206.719,184.039 c 0,-5.816 -4.715,-10.531 -10.531,-10.531 -5.813,0 -10.528,4.715 -10.528,10.531 0,5.813 4.715,10.527 10.528,10.527 5.816,0 10.531,-4.714 10.531,-10.527"
         style="fill:#000000;fill-opacity:1;fill-rule:nonzero;stroke:none"
         id="path1054" /><path
         d="m 170.617,156.66 c 1.172,7.735 6.731,12.426 15.043,13.238 h 24.067 c 6.168,-1.394 12.007,-4.39 12.035,-13.238 v -48.133 c 0,-4.211 -10.231,-4.812 -10.117,0 l 0.085,43.868 -2.003,-0.082 V 50.1641 c 0,-4.8125 -12.032,-4.8125 -12.032,0.0039 v 62.348 c -0.519,1.214 -1.191,1.57 -1.828,0.109 l -0.336,-62.457 c -0.246,-4.8164 -11.676,-4.8164 -11.676,-0.0039 l -0.222,102.4059 -1.988,0.086 -0.082,-44.129 c -0.114,-4.211 -10.946,-4.812 -10.946,0 v 48.133"
         style="fill:#000000;fill-opacity:1;fill-rule:nonzero;stroke:none"
         id="path1056" /></g></g></svg>
