<?xml version="1.0" encoding="UTF-8" standalone="no"?>
<!-- Generator: Adobe Illustrator 25.3.1, SVG Export Plug-In . SVG Version: 6.00 Build 0)  -->

<svg
   version="1.1"
   id="Layer_1"
   x="0"
   y="0"
   width="10.1mm"
   height="9mm"
   viewBox="0 0 38.17323 34.015748"
   xml:space="preserve"
   sodipodi:docname="warning_sharp_icon.svg"
   inkscape:version="1.1.1 (3bf5ae0d25, 2021-09-20)"
   xmlns:inkscape="http://www.inkscape.org/namespaces/inkscape"
   xmlns:sodipodi="http://sodipodi.sourceforge.net/DTD/sodipodi-0.dtd"
   xmlns="http://www.w3.org/2000/svg"
   xmlns:svg="http://www.w3.org/2000/svg"><defs
   id="defs17">
	

		
		
	</defs><sodipodi:namedview
   id="namedview15"
   pagecolor="#ffffff"
   bordercolor="#666666"
   borderopacity="1.0"
   inkscape:pageshadow="2"
   inkscape:pageopacity="0.0"
   inkscape:pagecheckerboard="0"
   showgrid="false"
   inkscape:zoom="7.993631"
   inkscape:cx="12.822708"
   inkscape:cy="23.331074"
   inkscape:window-width="1920"
   inkscape:window-height="1017"
   inkscape:window-x="-8"
   inkscape:window-y="-8"
   inkscape:window-maximized="1"
   inkscape:current-layer="Layer_1"
   units="mm"
   inkscape:document-units="mm" />
<style
   type="text/css"
   id="style2">
	.st0{fill:#F9A800;stroke:#000000;stroke-width:3.3053;stroke-miterlimit:10;}
	.st1{stroke:#000000;stroke-width:1.6629;stroke-miterlimit:10;}
	.st2{fill:none;}
</style>
<path
   class="st0"
   d="M 18.184761,2.0438187 1.5867923,30.684964 c -0.3859993,0.694798 0.0772,1.621197 0.9263982,1.621197 H 35.631927 c 0.849199,0 1.389598,-0.926399 0.926398,-1.621197 L 20.037557,2.0438187 c -0.385999,-0.7719986 -1.466797,-0.7719986 -1.852796,0 z"
   id="path4" />

<g
   id="g1322"
   transform="matrix(0.74563519,0,0,0.74563519,-3.4797686,0.05495131)"><path
     style="display:inline;fill:#000000;fill-opacity:1;stroke:#000000;stroke-width:0.082538px;stroke-linecap:butt;stroke-linejoin:miter;stroke-opacity:1"
     d="m 30.234411,17.322439 -6.300781,3.510767 c -0.228626,0.135622 -0.375877,0.515373 -0.441752,0.895125 l -0.03488,4.905776 c 0.01938,0.666503 0.67813,1.274881 1.174132,1.336881 h 5.905528 c -0.848629,2.080885 -1.813509,4.010644 -2.964389,5.789278 l -0.01163,5.661402 3.045765,0.02325 0.03487,-11.508806 3.766519,0.05812 c 0.817628,0.01937 0.693628,-1.577134 -0.02325,-1.511258 l -1.674009,0.0465 0.220876,-0.546377 3.243391,0.02325 c 0.899005,0.04262 0.984255,-1.356257 0.186001,-1.406632 h -3.17364 l 0.162751,-0.534753 4.092019,-0.01163 c 0.767253,-0.02713 0.744004,-1.344632 0.1395,-1.371756 H 33.652164 L 33.82654,22.11195 h 2.545887 c 0.654878,0.06977 0.682002,-1.418259 0.01163,-1.464762 l -8.625791,0.01163 v -0.290626 c 1.278756,-0.701379 3.382892,-1.321386 2.476137,-3.045764 z"
     id="path3009"
     inkscape:connector-curvature="0"
     sodipodi:nodetypes="ccccccccccccccccccccccccccc" /><path
     style="display:inline;fill:#f9a800;fill-opacity:1;stroke:#000000;stroke-width:0.082538px;stroke-linecap:butt;stroke-linejoin:miter;stroke-opacity:1"
     d="M 28.481288,22.23798 27.1792,27.6802 28.556447,27.6856 Z"
     id="path2997"
     inkscape:connector-curvature="0"
     sodipodi:nodetypes="cccc" /><path
     style="display:inline;fill:#f9a800;fill-opacity:1;stroke:#000000;stroke-width:0.082538px;stroke-linecap:butt;stroke-linejoin:miter;stroke-opacity:1"
     d="m 28.881706,26.339443 1.325337,-5.37328 -1.388871,0.0068 z"
     id="path2999"
     inkscape:connector-curvature="0"
     sodipodi:nodetypes="cccc" /><path
     style="display:inline;fill:#f9a800;fill-opacity:1;stroke:#000000;stroke-width:0.082538px;stroke-linecap:butt;stroke-linejoin:miter;stroke-opacity:1"
     d="m 28.904149,27.715075 1.383462,0.0054 -0.05352,-5.471688 z"
     id="path3001"
     inkscape:connector-curvature="0"
     sodipodi:nodetypes="cccc" /><path
     style="display:inline;fill:#f9a800;fill-opacity:1;stroke:#000000;stroke-width:0.082538px;stroke-linecap:butt;stroke-linejoin:miter;stroke-opacity:1"
     d="m 30.606654,26.414603 1.383463,-5.466282 h -1.446998 z"
     id="path3003"
     inkscape:connector-curvature="0"
     sodipodi:nodetypes="cccc" /><path
     style="display:inline;fill:#f9a800;fill-opacity:1;stroke:#000000;stroke-width:0.082538px;stroke-linecap:butt;stroke-linejoin:miter;stroke-opacity:1"
     d="m 30.611256,27.726701 1.505121,-8.31e-4 -0.06434,-5.570907 z"
     id="path3005"
     inkscape:connector-curvature="0"
     sodipodi:nodetypes="cccc" /><path
     style="display:inline;fill:#f9a800;fill-opacity:1;stroke:#000000;stroke-width:0.082538px;stroke-linecap:butt;stroke-linejoin:miter;stroke-opacity:1"
     d="m 32.401353,26.454887 1.377247,-5.494938 -1.435373,-0.0053 z"
     id="path3007"
     inkscape:connector-curvature="0"
     sodipodi:nodetypes="cccc" /></g></svg>
