<svg xmlns="http://www.w3.org/2000/svg" viewBox="0 0 1389 1389"><defs><style>.cls-1{fill:#324E76;}.cls-2{fill:#fff;}</style></defs><g id="Layer_2" data-name="Layer 2"><g id="Layer_1-2" data-name="Layer 1"><circle class="cls-1" cx="694.5" cy="694.5" r="694.5"/><path class="cls-2" d="M1016,605.8H863.9V385.7a21.36,21.36,0,0,0-21.4-21.4H546.6a21.36,21.36,0,0,0-21.4,21.4V605.9H373.1a21.36,21.36,0,0,0-21.4,21.4V905.5a21.36,21.36,0,0,0,21.4,21.4H520.9v76.4a21.36,21.36,0,0,0,21.4,21.4H838.2a21.36,21.36,0,0,0,21.4-21.4V926.9h156.5a21.36,21.36,0,0,0,21.4-21.4V627.3A21.47,21.47,0,0,0,1016,605.8ZM568,407.1H821.1V605.8H568ZM816.7,981.9H563.6V846.3H816.7ZM994.6,884H859.5V824.8a21.36,21.36,0,0,0-21.4-21.4H542.2a21.36,21.36,0,0,0-21.4,21.4V884H394.4V648.7H542.2a21.47,21.47,0,0,0,4.4.9h296a22.93,22.93,0,0,0,4.4-.9H994.8L994.6,884Z"/></g></g></svg>
