<?xml version="1.0" encoding="UTF-8" standalone="no"?>
<svg
   xmlns:dc="http://purl.org/dc/elements/1.1/"
   xmlns:cc="http://creativecommons.org/ns#"
   xmlns:rdf="http://www.w3.org/1999/02/22-rdf-syntax-ns#"
   xmlns:svg="http://www.w3.org/2000/svg"
   xmlns="http://www.w3.org/2000/svg"
   xmlns:sodipodi="http://sodipodi.sourceforge.net/DTD/sodipodi-0.dtd"
   xmlns:inkscape="http://www.inkscape.org/namespaces/inkscape"
   id="Layer_1"
   data-name="Layer 1"
   width="60.31"
   height="47.14"
   viewBox="0 0 60.31 47.14"
   version="1.1"
   sodipodi:docname="CE.svg"
   inkscape:version="1.0.2-2 (e86c870879, 2021-01-15)">
  <metadata
     id="metadata44">
    <rdf:RDF>
      <cc:Work
         rdf:about="">
        <dc:format>image/svg+xml</dc:format>
        <dc:type
           rdf:resource="http://purl.org/dc/dcmitype/StillImage" />
      </cc:Work>
    </rdf:RDF>
  </metadata>
  <defs
     id="defs42" />
  <sodipodi:namedview
     pagecolor="#ffffff"
     bordercolor="#666666"
     borderopacity="1"
     objecttolerance="10"
     gridtolerance="10"
     guidetolerance="10"
     inkscape:pageopacity="0"
     inkscape:pageshadow="2"
     inkscape:window-width="2560"
     inkscape:window-height="1361"
     id="namedview40"
     showgrid="false"
     inkscape:zoom="14.209915"
     inkscape:cx="30.155001"
     inkscape:cy="23.57"
     inkscape:window-x="-9"
     inkscape:window-y="-9"
     inkscape:window-maximized="1"
     inkscape:current-layer="Layer_1" />
  <g
     id="Layer_2"
     data-name="Layer 2"
     transform="matrix(0.50049364,0,0,0.50049364,0.12549381,0)">
    <g
       id="g34">
      <path
         d="m 22.84,46.24 c -0.73,0 -1.44,0.1 -2.14,0.1 A 21.69,21.69 0 0 1 20.7,3 h 2.14 v 6.73 a 15.4,15.4 0 0 0 -2.14,-0.15 15.18,15.18 0 0 0 0,30.34 19.24,19.24 0 0 0 2.14,-0.15 z"
         transform="translate(0.31)"
         style="fill:#1d1d1b"
         id="path28" />
      <path
         d="m 59.69,46.24 c -0.73,0 -1.44,0.1 -2.14,0.1 A 21.69,21.69 0 0 1 57.55,3 h 2.14 v 6.73 a 15.4,15.4 0 0 0 -2.14,-0.15 15.18,15.18 0 0 0 0,30.34 19.24,19.24 0 0 0 2.14,-0.15 z"
         transform="translate(0.31)"
         style="fill:#1d1d1b"
         id="path30" />
      <rect
         x="40.490002"
         y="21.4"
         width="15.18"
         height="6.5100002"
         style="fill:#1d1d1b"
         id="rect32" />
    </g>
  </g>
  <rect
     x="0.28064713"
     width="30.029589"
     height="23.593246"
     style="fill:none;stroke-width:0.500504"
     id="rect37"
     y="0" />
</svg>
