<?xml version="1.0" encoding="UTF-8" standalone="no"?>
<!-- Generator: Adobe Illustrator 25.2.1, SVG Export Plug-In . SVG Version: 6.00 Build 0)  -->

<svg
   version="1.1"
   id="Layer_1"
   x="0px"
   y="0px"
   viewBox="0 0 25.000001 19.220089"
   xml:space="preserve"
   sodipodi:docname="FCC.svg"
   inkscape:version="1.2 (dc2aedaf03, 2022-05-15)"
   width="25"
   height="19.220089"
   xmlns:inkscape="http://www.inkscape.org/namespaces/inkscape"
   xmlns:sodipodi="http://sodipodi.sourceforge.net/DTD/sodipodi-0.dtd"
   xmlns="http://www.w3.org/2000/svg"
   xmlns:svg="http://www.w3.org/2000/svg"><defs
   id="defs23" />
<style
   type="text/css"
   id="style17">
	.st0{fill:none;stroke:#000000;stroke-width:1.3029;}
</style>
<sodipodi:namedview
   bordercolor="#666666"
   borderopacity="1"
   gridtolerance="10"
   guidetolerance="10"
   id="namedview62"
   inkscape:current-layer="Layer_1"
   inkscape:cx="15.902999"
   inkscape:cy="12.995999"
   inkscape:pageopacity="0"
   inkscape:pageshadow="2"
   inkscape:window-height="1361"
   inkscape:window-maximized="1"
   inkscape:window-width="2560"
   inkscape:window-x="-9"
   inkscape:window-y="-9"
   inkscape:zoom="26.315791"
   objecttolerance="10"
   pagecolor="#ffffff"
   showgrid="false"
   inkscape:showpageshadow="2"
   inkscape:pagecheckerboard="0"
   inkscape:deskcolor="#d1d1d1">
	</sodipodi:namedview>

<g
   id="g131"
   transform="matrix(1.6092055,0,0,1.5054596,-11.7472,-8.9071088)"><path
     id="path57"
     class="st0"
     d="m 20,14 c -0.9,1.4 -2.8,1.7 -4.2,0.8 -1.4,-0.9 -1.7,-2.8 -0.8,-4.2 0.9,-1.4 2.8,-1.7 4.2,-0.8 0,0 0,0 0,0 v 0 c 0.3,0.2 0.5,0.4 0.7,0.7 m 2.4,5.1 c -1.8,2.6 -5.4,3.2 -8,1.4 -2.6,-1.8 -3.2,-5.4 -1.4,-8 1.8,-2.6 5.4,-3.2 8,-1.4 0.5,0.4 1,0.8 1.3,1.3" /><path
     id="path59"
     d="M 11.2,11.6 H 8.6 V 7.3 h 3.2 L 12.8,6 H 7.3 v 12.4 l 1.3,-0.9 v -4.7 h 2.7 v -1.2 z" /></g>
</svg>
