<?xml version="1.0" encoding="UTF-8" standalone="no"?>
<!-- Generator: Adobe Illustrator 23.0.3, SVG Export Plug-In . SVG Version: 6.00 Build 0)  -->

<svg
   version="1.0"
   x="0px"
   y="0px"
   width="10.1mm"
   height="9mm"
   viewBox="0 0 38.17323 34.015748"
   xml:space="preserve"
   id="svg2275"
   sodipodi:docname="caution_icon.svg"
   inkscape:version="1.1.1 (3bf5ae0d25, 2021-09-20)"
   xmlns:inkscape="http://www.inkscape.org/namespaces/inkscape"
   xmlns:sodipodi="http://sodipodi.sourceforge.net/DTD/sodipodi-0.dtd"
   xmlns="http://www.w3.org/2000/svg"
   xmlns:svg="http://www.w3.org/2000/svg"><defs
   id="defs2279" /><sodipodi:namedview
   id="namedview2277"
   pagecolor="#ffffff"
   bordercolor="#666666"
   borderopacity="1.0"
   inkscape:pageshadow="2"
   inkscape:pageopacity="0.0"
   inkscape:pagecheckerboard="0"
   showgrid="false"
   units="mm"
   inkscape:zoom="16.284502"
   inkscape:cx="29.997848"
   inkscape:cy="26.558995"
   inkscape:window-width="1920"
   inkscape:window-height="1017"
   inkscape:window-x="-8"
   inkscape:window-y="-8"
   inkscape:window-maximized="1"
   inkscape:current-layer="svg2275"
   inkscape:document-units="mm" />
<style
   type="text/css"
   id="style2137">
	.st0{display:none;}
	.st1{display:inline;fill:#F9A800;stroke:#000000;stroke-width:2.4189;stroke-miterlimit:10;}
	.st2{display:inline;stroke:#000000;stroke-width:1.217;stroke-miterlimit:10;}
	.st3{fill:#F9A800;stroke:#000000;stroke-width:3.3053;stroke-miterlimit:10;}
	.st4{stroke:#000000;stroke-width:1.6629;stroke-miterlimit:10;}
	.st5{display:inline;fill:#FF0000;stroke:#000000;stroke-width:2.7558;stroke-miterlimit:10;}
	.st6{display:inline;fill:#FFFFFF;stroke:#FFFFFF;stroke-width:1.217;stroke-miterlimit:10;}
	.st7{display:inline;}
	.st8{fill:#FF0000;stroke:#000000;stroke-width:3.8164;stroke-miterlimit:10;}
	.st9{fill:#FFFFFF;stroke:#FFFFFF;stroke-width:1.6853;stroke-miterlimit:10;}
	.st10{fill:#00A9F7;stroke:#000000;stroke-width:2.0172;stroke-miterlimit:10;}
	.st11{fill:#FFFFFF;stroke:#000000;stroke-width:1.5129;stroke-linecap:round;stroke-linejoin:round;stroke-miterlimit:10;}
	.st12{fill:none;stroke:#000000;stroke-width:3.0259;stroke-linecap:round;stroke-linejoin:round;stroke-miterlimit:10;}
	.st13{stroke:#000000;stroke-width:0.5242;stroke-linecap:round;stroke-linejoin:round;stroke-miterlimit:10;}
	.st14{fill:none;}
</style>
<g
   id="triangle"
   class="st0">
	<path
   class="st1"
   d="m 28.8,2.7 -15,26 c -0.5,0.9 0.1,2.1 1.2,2.1 h 30 c 1.1,0 1.8,-1.2 1.2,-2.1 l -15,-26 c -0.5,-0.9 -1.9,-0.9 -2.4,0 z"
   id="path2139" />
	<path
   class="st2"
   d="m 30,23.9 c 0.4,0 0.7,0.1 0.9,0.4 0.3,0.3 0.4,0.6 0.4,0.9 0,0.3 -0.1,0.7 -0.4,0.9 -0.3,0.3 -0.6,0.4 -0.9,0.4 -0.4,0 -0.7,-0.1 -0.9,-0.4 -0.3,-0.3 -0.4,-0.6 -0.4,-0.9 0,-0.3 0.1,-0.7 0.4,-0.9 0.2,-0.3 0.5,-0.4 0.9,-0.4 z m -0.5,-2.3 -0.8,-9.3 c 0,-0.3 0,-0.4 0,-0.5 0,-0.5 0.1,-0.9 0.3,-1.1 0.2,-0.2 0.5,-0.4 1,-0.4 0.4,0 0.7,0.1 0.9,0.3 0.2,0.2 0.3,0.5 0.3,0.9 0,0.1 0,0.3 -0.1,0.6 l -0.8,9.4 h -0.8 z"
   id="path2141" />
</g>
<g
   id="triangle_copy"
   transform="matrix(0.77199853,0,0,0.77199853,-4.1999784,-1.0867987)">
	<g
   id="g2148">
		<path
   class="st3"
   d="M 28.8,4.3 7.3,41.4 c -0.5,0.9 0.1,2.1 1.2,2.1 h 42.9 c 1.1,0 1.8,-1.2 1.2,-2.1 L 31.2,4.3 c -0.5,-1 -1.9,-1 -2.4,0 z"
   id="path2144" />
		<path
   class="st4"
   d="m 30,33.9 c 0.5,0 0.9,0.2 1.3,0.5 0.3,0.3 0.5,0.8 0.5,1.3 0,0.5 -0.2,0.9 -0.5,1.3 -0.4,0.3 -0.8,0.5 -1.3,0.5 -0.5,0 -0.9,-0.2 -1.3,-0.5 -0.4,-0.3 -0.5,-0.8 -0.5,-1.3 0,-0.5 0.2,-0.9 0.5,-1.3 0.4,-0.3 0.8,-0.5 1.3,-0.5 z M 29.4,30.8 28.3,18.1 c 0,-0.4 -0.1,-0.6 -0.1,-0.7 0,-0.7 0.2,-1.2 0.5,-1.5 0.3,-0.3 0.8,-0.5 1.3,-0.5 0.5,0 0.9,0.2 1.2,0.5 0.3,0.3 0.5,0.7 0.5,1.3 0,0.2 0,0.5 -0.1,0.9 L 30.5,31 h -1.1 z"
   id="path2146" />
	</g>
</g>
<g
   id="danger"
   class="st0">
	<path
   class="st5"
   d="m 28.8,2.7 -15,26 c -0.5,0.9 0.1,2.1 1.2,2.1 h 30 c 1.1,0 1.8,-1.2 1.2,-2.1 l -15,-26 c -0.5,-0.9 -1.9,-0.9 -2.4,0 z"
   id="path2151" />
	<path
   class="st6"
   d="m 30,23.9 c 0.4,0 0.7,0.1 0.9,0.4 0.3,0.3 0.4,0.6 0.4,0.9 0,0.3 -0.1,0.7 -0.4,0.9 -0.3,0.3 -0.6,0.4 -0.9,0.4 -0.4,0 -0.7,-0.1 -0.9,-0.4 -0.3,-0.3 -0.4,-0.6 -0.4,-0.9 0,-0.3 0.1,-0.7 0.4,-0.9 0.2,-0.3 0.5,-0.4 0.9,-0.4 z m -0.5,-2.3 -0.8,-9.3 c 0,-0.3 0,-0.4 0,-0.5 0,-0.5 0.1,-0.9 0.3,-1.1 0.2,-0.2 0.5,-0.4 1,-0.4 0.4,0 0.7,0.1 0.9,0.3 0.2,0.2 0.3,0.5 0.3,0.9 0,0.1 0,0.3 -0.1,0.6 l -0.8,9.4 h -0.8 z"
   id="path2153" />
</g>
<g
   id="danger_copy"
   class="st0">
	<g
   class="st7"
   id="g2160">
		<path
   class="st8"
   d="M 28.8,4 7,41.7 c -0.5,0.9 0.1,2.1 1.2,2.1 h 43.5 c 1.1,0 1.8,-1.2 1.2,-2.1 L 31.2,4 C 30.7,3.1 29.3,3.1 28.8,4 Z"
   id="path2156" />
		<path
   class="st9"
   d="m 30,34.1 c 0.5,0 0.9,0.2 1.3,0.5 0.4,0.4 0.5,0.8 0.5,1.3 0,0.5 -0.2,0.9 -0.5,1.3 -0.4,0.4 -0.8,0.5 -1.3,0.5 -0.5,0 -0.9,-0.2 -1.3,-0.5 -0.4,-0.4 -0.5,-0.8 -0.5,-1.3 0,-0.5 0.2,-0.9 0.5,-1.3 0.4,-0.4 0.8,-0.5 1.3,-0.5 z M 29.4,30.9 28.3,18 c 0,-0.4 -0.1,-0.6 -0.1,-0.7 0,-0.7 0.2,-1.2 0.5,-1.6 0.3,-0.3 0.8,-0.5 1.4,-0.5 0.5,0 0.9,0.2 1.3,0.5 0.3,0.3 0.5,0.7 0.5,1.3 0,0.2 0,0.5 -0.1,0.9 l -1.2,13 z"
   id="path2158" />
	</g>
</g>
<g
   id="warning"
   class="st0">
	<g
   class="st7"
   id="g2177">
		<path
   d="M 4.6,43.9 2.2,33.8 h 2.1 l 1.5,6.9 1.8,-6.9 H 10 l 1.8,7 1.5,-7 h 2 l -2.4,10.1 h -2.2 l -2,-7.5 -2,7.5 z"
   id="path2163" />
		<path
   d="m 17.3,38.8 -1.8,-0.3 c 0.2,-0.7 0.5,-1.2 1,-1.6 0.5,-0.3 1.2,-0.5 2.1,-0.5 0.9,0 1.5,0.1 1.9,0.3 0.4,0.2 0.7,0.5 0.9,0.8 0.2,0.3 0.3,0.9 0.3,1.7 v 2.3 c 0,0.6 0,1.1 0.1,1.4 0.1,0.3 0.2,0.6 0.3,1 H 20.2 C 20.1,43.8 20.1,43.6 20,43.3 20,43.2 19.9,43.1 19.9,43.1 19.6,43.4 19.2,43.7 18.8,43.8 18.4,44 18,44 17.6,44 16.8,44 16.3,43.8 15.8,43.4 15.4,43 15.2,42.5 15.2,41.9 c 0,-0.4 0.1,-0.8 0.3,-1.1 0.2,-0.3 0.5,-0.6 0.8,-0.7 0.4,-0.2 0.9,-0.3 1.5,-0.5 0.9,-0.2 1.5,-0.3 1.9,-0.5 V 39 c 0,-0.4 -0.1,-0.6 -0.3,-0.8 -0.2,-0.2 -0.5,-0.2 -1,-0.2 -0.3,0 -0.6,0.1 -0.8,0.2 0,0.1 -0.1,0.3 -0.3,0.6 z m 2.6,1.6 c -0.2,0.1 -0.6,0.2 -1.2,0.3 -0.5,0.1 -0.9,0.2 -1.1,0.3 -0.3,0.2 -0.4,0.4 -0.4,0.7 0,0.3 0.1,0.5 0.3,0.7 0.2,0.2 0.5,0.3 0.8,0.3 0.3,0 0.7,-0.1 1,-0.3 0.2,-0.2 0.4,-0.4 0.5,-0.6 0.1,-0.2 0.1,-0.5 0.1,-0.9 z"
   id="path2165" />
		<path
   d="m 25.6,43.9 h -1.9 v -7.3 h 1.8 v 1 c 0.3,-0.5 0.6,-0.8 0.8,-1 0.2,-0.2 0.5,-0.2 0.8,-0.2 0.4,0 0.9,0.1 1.3,0.4 l -0.6,1.7 c -0.3,-0.2 -0.6,-0.3 -0.9,-0.3 -0.3,0 -0.5,0.1 -0.7,0.2 -0.2,0.1 -0.3,0.4 -0.4,0.8 -0.1,0.4 -0.2,1.2 -0.2,2.4 z"
   id="path2167" />
		<path
   d="m 35.8,43.9 h -1.9 v -3.7 c 0,-0.8 0,-1.3 -0.1,-1.5 C 33.7,38.5 33.6,38.3 33.4,38.2 33.2,38.1 33,38 32.7,38 c -0.3,0 -0.6,0.1 -0.9,0.3 -0.3,0.2 -0.4,0.4 -0.5,0.7 -0.1,0.3 -0.1,0.9 -0.1,1.7 V 44 H 29.3 V 36.7 H 31 v 1.1 c 0.6,-0.8 1.4,-1.2 2.4,-1.2 0.4,0 0.8,0.1 1.2,0.2 0.4,0.2 0.6,0.3 0.8,0.6 0.2,0.2 0.3,0.5 0.4,0.8 0.1,0.3 0.1,0.7 0.1,1.3 v 4.4 z"
   id="path2169" />
		<path
   d="m 37.8,35.6 v -1.8 h 1.9 v 1.8 z m 0,8.3 v -7.3 h 1.9 v 7.3 z"
   id="path2171" />
		<path
   d="m 48.3,43.9 h -1.9 v -3.7 c 0,-0.8 0,-1.3 -0.1,-1.5 -0.1,-0.2 -0.2,-0.4 -0.4,-0.5 -0.2,-0.1 -0.4,-0.2 -0.7,-0.2 -0.3,0 -0.6,0.1 -0.9,0.3 -0.3,0.2 -0.4,0.4 -0.5,0.7 -0.1,0.3 -0.1,0.9 -0.1,1.7 V 44 h -1.9 v -7.3 h 1.8 v 1.1 C 44.2,37 45,36.6 46,36.6 c 0.4,0 0.8,0.1 1.2,0.2 0.4,0.2 0.6,0.3 0.8,0.6 0.2,0.2 0.3,0.5 0.4,0.8 0.1,0.3 0.1,0.7 0.1,1.3 v 4.4 z"
   id="path2173" />
		<path
   d="m 50.1,44.4 2.2,0.3 c 0,0.3 0.1,0.4 0.3,0.5 0.2,0.1 0.5,0.2 0.9,0.2 0.5,0 0.9,-0.1 1.1,-0.2 0.2,-0.1 0.3,-0.3 0.4,-0.5 0.1,-0.2 0.1,-0.5 0.1,-0.9 v -1.1 c -0.6,0.8 -1.3,1.2 -2.2,1.2 -1,0 -1.8,-0.4 -2.3,-1.2 -0.4,-0.7 -0.7,-1.5 -0.7,-2.4 0,-1.2 0.3,-2.2 0.9,-2.8 0.6,-0.6 1.3,-1 2.2,-1 0.9,0 1.6,0.4 2.2,1.2 v -1 H 57 v 6.5 c 0,0.9 -0.1,1.5 -0.2,1.9 -0.1,0.4 -0.3,0.8 -0.6,1 -0.3,0.2 -0.6,0.4 -1,0.6 -0.4,0.1 -1,0.2 -1.6,0.2 -1.2,0 -2.1,-0.2 -2.6,-0.6 -0.5,-0.4 -0.8,-1 -0.8,-1.6 -0.1,-0.1 -0.1,-0.2 -0.1,-0.3 z m 1.7,-4.3 c 0,0.8 0.1,1.3 0.4,1.7 0.3,0.4 0.7,0.5 1.1,0.5 0.5,0 0.9,-0.2 1.2,-0.6 0.3,-0.4 0.5,-0.9 0.5,-1.6 0,-0.8 -0.2,-1.3 -0.5,-1.7 -0.3,-0.4 -0.7,-0.5 -1.2,-0.5 -0.5,0 -0.8,0.2 -1.1,0.5 -0.2,0.4 -0.4,1 -0.4,1.7 z"
   id="path2175" />
	</g>
</g>
<g
   id="Danger"
   class="st0">
	<g
   class="st7"
   id="g2192">
		<path
   d="m 1.5,34.2 h 3.6 c 0.8,0 1.4,0.1 1.9,0.2 0.6,0.2 1.1,0.5 1.5,0.9 0.4,0.4 0.7,1 0.9,1.6 0.2,0.6 0.3,1.4 0.3,2.3 0,0.8 -0.1,1.5 -0.3,2.1 C 9.2,42 8.8,42.6 8.4,43 8.1,43.3 7.6,43.6 7,43.8 6.6,43.9 6,44 5.3,44 H 1.5 Z m 2,1.6 v 6.5 H 5 c 0.5,0 0.9,0 1.2,-0.1 C 6.5,42.1 6.8,42 7,41.8 7.2,41.6 7.4,41.3 7.5,40.9 7.6,40.5 7.7,39.9 7.7,39.1 7.7,38.3 7.6,37.8 7.5,37.4 7.4,37 7.2,36.7 6.9,36.5 6.6,36.1 6.3,36 6,35.9 5.7,35.8 5.2,35.8 4.4,35.8 Z"
   id="path2180" />
		<path
   d="M 20.1,43.9 H 18 l -0.9,-2.2 h -3.9 l -0.8,2.2 h -2.1 l 3.8,-9.7 h 2.1 z m -3.6,-3.8 -1.3,-3.6 -1.3,3.6 z"
   id="path2182" />
		<path
   d="m 21.2,43.9 v -9.7 h 1.9 l 4,6.5 v -6.5 h 1.8 v 9.7 h -2 L 23,37.6 V 44 h -1.8 z"
   id="path2184" />
		<path
   d="m 35.5,40.3 v -1.6 h 4.2 v 3.9 c -0.4,0.4 -1,0.8 -1.8,1.1 -0.8,0.3 -1.6,0.5 -2.4,0.5 -1,0 -1.9,-0.2 -2.7,-0.6 -0.8,-0.4 -1.3,-1 -1.7,-1.8 -0.4,-0.8 -0.6,-1.7 -0.6,-2.6 0,-1 0.2,-1.9 0.6,-2.7 0.4,-0.8 1,-1.4 1.9,-1.8 0.6,-0.3 1.4,-0.5 2.3,-0.5 1.2,0 2.2,0.3 2.8,0.8 0.7,0.5 1.1,1.2 1.3,2.1 l -2,0.4 C 37.3,37 37,36.6 36.6,36.4 36.2,36.1 35.7,36 35.2,36 c -0.9,0 -1.5,0.3 -2,0.8 -0.5,0.5 -0.8,1.4 -0.8,2.4 0,1.2 0.3,2 0.8,2.6 0.5,0.6 1.2,0.9 2,0.9 0.4,0 0.8,-0.1 1.2,-0.2 0.4,-0.2 0.8,-0.4 1.1,-0.6 v -1.2 h -2 z"
   id="path2186" />
		<path
   d="m 41.6,43.9 v -9.7 h 7.2 v 1.6 H 43.5 V 38 h 4.9 v 1.6 h -4.9 v 2.7 H 49 v 1.6 z"
   id="path2188" />
		<path
   d="m 50.7,43.9 v -9.7 h 4.1 c 1,0 1.8,0.1 2.3,0.3 0.5,0.2 0.8,0.5 1.1,0.9 0.3,0.4 0.4,1 0.4,1.5 0,0.7 -0.2,1.3 -0.6,1.8 -0.4,0.5 -1.1,0.8 -1.9,0.9 0.4,0.2 0.8,0.5 1.1,0.8 0.3,0.3 0.6,0.8 1.1,1.6 l 1.2,1.9 H 57.1 L 55.7,41.8 C 55.2,41 54.8,40.6 54.7,40.4 54.5,40.2 54.3,40.1 54.1,40 53.9,39.9 53.6,39.9 53.1,39.9 H 52.7 V 44 h -2 z m 1.9,-5.6 h 1.5 c 0.9,0 1.5,0 1.8,-0.1 0.2,-0.1 0.4,-0.2 0.6,-0.4 0.2,-0.2 0.2,-0.4 0.2,-0.7 0,-0.3 -0.1,-0.6 -0.3,-0.8 -0.2,-0.2 -0.4,-0.3 -0.7,-0.4 -0.2,0 -0.6,0 -1.4,0 h -1.5 v 2.4 z"
   id="path2190" />
	</g>
</g>
<g
   id="caution"
   class="st0">
	<g
   class="st7"
   id="g2209">
		<path
   d="m 11.3,40.2 2,0.6 C 13,41.9 12.5,42.7 11.8,43.2 11.1,43.7 10.2,44 9.1,44 7.8,44 6.7,43.5 5.8,42.6 4.9,41.7 4.5,40.4 4.5,38.9 c 0,-1.7 0.4,-3 1.3,-3.9 0.9,-0.9 2,-1.4 3.4,-1.4 1.2,0 2.2,0.4 3,1.1 0.5,0.4 0.8,1 1,1.9 l -2,0.5 c -0.1,-0.5 -0.4,-0.9 -0.7,-1.2 -0.4,-0.3 -0.8,-0.5 -1.4,-0.5 -0.7,0 -1.4,0.3 -1.8,0.8 -0.5,0.5 -0.7,1.4 -0.7,2.6 0,1.3 0.2,2.2 0.7,2.7 0.5,0.5 1.1,0.8 1.8,0.8 0.5,0 1,-0.2 1.4,-0.5 0.3,-0.3 0.6,-0.9 0.8,-1.6 z"
   id="path2195" />
		<path
   d="m 16.4,38.8 -1.8,-0.3 c 0.2,-0.7 0.5,-1.2 1,-1.6 0.5,-0.3 1.2,-0.5 2.1,-0.5 0.9,0 1.5,0.1 1.9,0.3 0.4,0.2 0.7,0.5 0.9,0.8 0.2,0.3 0.3,0.9 0.3,1.7 v 2.3 c 0,0.6 0,1.1 0.1,1.4 0.1,0.3 0.2,0.6 0.3,1 h -1.9 c -0.1,-0.1 -0.1,-0.3 -0.2,-0.6 0,-0.1 -0.1,-0.2 -0.1,-0.2 -0.3,0.3 -0.7,0.6 -1.1,0.7 -0.4,0.2 -0.8,0.2 -1.2,0.2 -0.8,0 -1.3,-0.2 -1.8,-0.6 -0.4,-0.4 -0.6,-0.9 -0.6,-1.5 0,-0.4 0.1,-0.8 0.3,-1.1 0.2,-0.3 0.5,-0.6 0.8,-0.7 0.4,-0.2 0.9,-0.3 1.5,-0.5 0.9,-0.2 1.5,-0.3 1.9,-0.5 V 39 c 0,-0.4 -0.1,-0.6 -0.3,-0.8 C 18.3,38 18,38 17.5,38 c -0.3,0 -0.6,0.1 -0.8,0.2 0,0.1 -0.1,0.3 -0.3,0.6 z m 2.6,1.6 c -0.2,0.1 -0.6,0.2 -1.2,0.3 -0.5,0.1 -0.9,0.2 -1.1,0.3 -0.3,0.2 -0.4,0.4 -0.4,0.7 0,0.3 0.1,0.5 0.3,0.7 0.2,0.2 0.5,0.3 0.8,0.3 0.3,0 0.7,-0.1 1,-0.3 0.2,-0.2 0.4,-0.4 0.5,-0.6 C 19,41.6 19,41.3 19,40.9 Z"
   id="path2197" />
		<path
   d="m 27.6,43.9 v -1.1 c -0.3,0.4 -0.6,0.7 -1,0.9 -0.4,0.2 -0.9,0.3 -1.4,0.3 -0.5,0 -0.9,-0.1 -1.3,-0.3 -0.4,-0.2 -0.7,-0.5 -0.8,-0.9 -0.2,-0.4 -0.3,-0.9 -0.3,-1.6 v -4.6 h 1.9 V 40 c 0,1 0,1.7 0.1,1.9 0.1,0.2 0.2,0.4 0.4,0.5 0.2,0.1 0.4,0.2 0.7,0.2 0.3,0 0.6,-0.1 0.9,-0.3 0.3,-0.2 0.4,-0.4 0.5,-0.7 0.1,-0.3 0.1,-0.9 0.1,-2 v -3.1 h 1.9 v 7.3 h -1.7 z"
   id="path2199" />
		<path
   d="m 34.7,36.6 v 1.5 H 33.4 V 41 c 0,0.6 0,0.9 0,1 0,0.1 0.1,0.2 0.2,0.2 0.1,0.1 0.2,0.1 0.3,0.1 0.2,0 0.4,-0.1 0.8,-0.2 l 0.2,1.5 c -0.4,0.2 -1,0.3 -1.5,0.3 -0.3,0 -0.7,-0.1 -0.9,-0.2 C 32.2,43.6 32,43.4 31.9,43.2 31.8,43 31.7,42.8 31.6,42.4 31.6,42.2 31.5,41.7 31.5,41 v -3.2 h -0.9 v -1.5 h 0.9 v -1.4 l 1.9,-1.1 v 2.6 h 1.3 z"
   id="path2201" />
		<path
   d="M 36.1,35.6 V 33.8 H 38 v 1.8 z m 0,8.3 V 36.6 H 38 v 7.3 z"
   id="path2203" />
		<path
   d="m 39.6,40.2 c 0,-0.6 0.2,-1.3 0.5,-1.9 0.3,-0.6 0.8,-1.1 1.3,-1.4 0.5,-0.3 1.2,-0.5 1.9,-0.5 1.1,0 2,0.4 2.7,1.1 0.7,0.7 1.1,1.6 1.1,2.7 0,1.1 -0.4,2 -1.1,2.7 C 45.3,43.6 44.4,44 43.3,44 42.6,44 42,43.8 41.4,43.5 40.8,43.2 40.3,42.8 40,42.2 39.7,41.7 39.6,41 39.6,40.2 Z m 1.9,0.1 c 0,0.7 0.2,1.3 0.5,1.7 0.3,0.4 0.8,0.6 1.3,0.6 0.5,0 0.9,-0.2 1.3,-0.6 0.3,-0.4 0.5,-0.9 0.5,-1.7 0,-0.7 -0.2,-1.3 -0.5,-1.6 -0.3,-0.4 -0.8,-0.6 -1.3,-0.6 -0.5,0 -0.9,0.2 -1.3,0.6 -0.3,0.3 -0.5,0.8 -0.5,1.6 z"
   id="path2205" />
		<path
   d="m 55.2,43.9 h -1.9 v -3.7 c 0,-0.8 0,-1.3 -0.1,-1.5 C 53.1,38.5 53,38.3 52.8,38.2 52.6,38.1 52.4,38 52.1,38 c -0.3,0 -0.6,0.1 -0.9,0.3 -0.3,0.2 -0.4,0.4 -0.5,0.7 -0.1,0.3 -0.1,0.9 -0.1,1.7 V 44 h -1.9 v -7.3 h 1.8 v 1.1 c 0.6,-0.8 1.4,-1.2 2.4,-1.2 0.4,0 0.8,0.1 1.2,0.2 0.4,0.2 0.6,0.3 0.8,0.6 0.2,0.2 0.3,0.5 0.4,0.8 0.1,0.3 0.1,0.7 0.1,1.3 v 4.4 z"
   id="path2207" />
	</g>
</g>
<g
   id="Notice"
   class="st0">
	<g
   class="st7"
   id="g2224">
		<path
   d="M 9.5,43.9 V 33.8 h 2 l 4.1,6.7 v -6.7 h 1.9 v 10.1 h -2 l -4.1,-6.6 v 6.6 z"
   id="path2212" />
		<path
   d="m 19.2,40.2 c 0,-0.6 0.2,-1.3 0.5,-1.9 0.3,-0.6 0.8,-1.1 1.3,-1.4 0.5,-0.3 1.2,-0.5 1.9,-0.5 1.1,0 2,0.4 2.7,1.1 0.7,0.7 1.1,1.6 1.1,2.7 0,1.1 -0.4,2 -1.1,2.7 C 24.9,43.6 24,44 22.9,44 22.2,44 21.6,43.8 21,43.5 20.4,43.2 19.9,42.8 19.6,42.2 19.4,41.7 19.2,41 19.2,40.2 Z m 2,0.1 c 0,0.7 0.2,1.3 0.5,1.7 0.3,0.4 0.8,0.6 1.3,0.6 0.5,0 0.9,-0.2 1.3,-0.6 0.3,-0.4 0.5,-0.9 0.5,-1.7 0,-0.7 -0.2,-1.3 -0.5,-1.6 C 23.9,38.2 23.5,38 23,38 c -0.5,0 -0.9,0.2 -1.3,0.6 -0.3,0.4 -0.5,0.9 -0.5,1.7 z"
   id="path2214" />
		<path
   d="m 31.6,36.6 v 1.5 H 30.3 V 41 c 0,0.6 0,0.9 0,1 0,0.1 0.1,0.2 0.2,0.2 0.1,0.1 0.2,0.1 0.3,0.1 0.2,0 0.4,-0.1 0.8,-0.2 l 0.2,1.5 c -0.4,0.2 -1,0.3 -1.5,0.3 -0.3,0 -0.7,-0.1 -0.9,-0.2 -0.3,-0.1 -0.5,-0.3 -0.6,-0.5 -0.1,-0.2 -0.2,-0.4 -0.3,-0.8 0,-0.2 -0.1,-0.7 -0.1,-1.4 v -3.2 h -0.9 v -1.5 h 0.9 v -1.4 l 1.9,-1.1 v 2.6 h 1.3 z"
   id="path2216" />
		<path
   d="m 32.9,35.6 v -1.8 h 1.9 v 1.8 z m 0,8.3 v -7.3 h 1.9 v 7.3 z"
   id="path2218" />
		<path
   d="m 43.2,38.8 -1.9,0.3 C 41.2,38.7 41.1,38.4 40.9,38.2 40.7,38.1 40.4,38 40,38 c -0.5,0 -0.9,0.2 -1.2,0.5 -0.3,0.3 -0.4,0.9 -0.4,1.7 0,0.9 0.1,1.5 0.4,1.8 0.3,0.4 0.7,0.5 1.2,0.5 0.4,0 0.7,-0.1 0.9,-0.3 0.2,-0.2 0.4,-0.6 0.5,-1.1 l 1.9,0.3 c -0.2,0.9 -0.6,1.5 -1.1,2 -0.6,0.4 -1.3,0.7 -2.2,0.7 -1.1,0 -1.9,-0.3 -2.6,-1 -0.6,-0.7 -1,-1.6 -1,-2.8 0,-1.2 0.3,-2.1 1,-2.8 0.6,-0.7 1.5,-1 2.6,-1 0.9,0 1.6,0.2 2.1,0.6 0.5,0.3 0.9,0.9 1.1,1.7 z"
   id="path2220" />
		<path
   d="m 48.9,41.6 1.9,0.3 c -0.2,0.7 -0.6,1.2 -1.2,1.6 -0.5,0.4 -1.2,0.6 -2,0.6 -1.3,0 -2.2,-0.4 -2.8,-1.2 -0.5,-0.7 -0.7,-1.5 -0.7,-2.5 0,-1.2 0.3,-2.2 0.9,-2.8 0.6,-0.7 1.4,-1 2.4,-1 1.1,0 1.9,0.4 2.6,1.1 0.6,0.7 0.9,1.8 0.9,3.3 h -4.8 c 0,0.6 0.2,1 0.5,1.3 0.3,0.3 0.7,0.5 1.1,0.5 0.3,0 0.6,-0.1 0.8,-0.2 0.1,-0.4 0.3,-0.6 0.4,-1 z m 0.1,-2 c 0,-0.6 -0.2,-1 -0.4,-1.3 -0.3,-0.3 -0.6,-0.4 -1,-0.4 -0.4,0 -0.8,0.2 -1,0.5 -0.3,0.3 -0.4,0.7 -0.4,1.2 z"
   id="path2222" />
	</g>
</g>
<g
   id="Tip"
   class="st0">
	<g
   class="st7"
   id="g2233">
		<path
   d="m 22.9,43.9 v -8.4 h -3 v -1.7 h 8 v 1.7 h -3 v 8.4 z"
   id="path2227" />
		<path
   d="m 28.9,35.6 v -1.8 h 1.9 v 1.8 z m 0,8.3 v -7.3 h 1.9 v 7.3 z"
   id="path2229" />
		<path
   d="m 32.8,36.6 h 1.8 v 1.1 c 0.2,-0.4 0.5,-0.7 0.9,-0.9 0.4,-0.2 0.8,-0.3 1.3,-0.3 0.8,0 1.6,0.3 2.2,1 0.6,0.7 0.9,1.6 0.9,2.8 0,1.2 -0.3,2.2 -0.9,2.8 -0.6,0.7 -1.3,1 -2.2,1 -0.4,0 -0.8,-0.1 -1.1,-0.2 -0.3,-0.2 -0.7,-0.4 -1,-0.8 v 3.7 h -1.9 z m 1.9,3.5 c 0,0.8 0.2,1.4 0.5,1.8 0.3,0.4 0.7,0.6 1.2,0.6 0.4,0 0.8,-0.2 1.1,-0.5 0.3,-0.4 0.4,-0.9 0.4,-1.8 0,-0.8 -0.2,-1.3 -0.5,-1.7 -0.3,-0.4 -0.7,-0.6 -1.1,-0.6 -0.5,0 -0.9,0.2 -1.2,0.5 -0.3,0.5 -0.4,1 -0.4,1.7 z"
   id="path2231" />
	</g>
</g>
<g
   id="NoticeIcon"
   class="st0">
	<g
   class="st7"
   id="g2254">
		<path
   class="st10"
   d="M 42.9,15.5 V 11 C 42.9,9.3 41.6,8 40,8 H 14.3 c -1.6,0 -2.9,1.3 -2.9,2.9 v 29.8 c 0,1.6 1.3,2.9 2.9,2.9 H 40 c 1.6,0 2.9,-1.3 2.9,-2.9 V 37"
   id="path2236" />
		<g
   id="g2244">
			
				<rect
   x="27.799999"
   y="23.299999"
   transform="matrix(0.8285,-0.5599,0.5599,0.8285,-9.0143,27.1389)"
   class="st11"
   width="24.1"
   height="10"
   id="rect2238" />
			<polygon
   class="st11"
   points="22.7,39.9 32.6,39.2 27,30.9 "
   id="polygon2240" />
			<polygon
   points="22.7,39.9 24.6,35.9 27.1,39.6 "
   id="polygon2242" />
		</g>
		<line
   class="st12"
   x1="16.6"
   y1="3.5999999"
   x2="16.6"
   y2="12"
   id="line2246" />
		<line
   class="st12"
   x1="23.6"
   y1="3.5999999"
   x2="23.6"
   y2="12"
   id="line2248" />
		<line
   class="st12"
   x1="30.700001"
   y1="3.5999999"
   x2="30.700001"
   y2="12"
   id="line2250" />
		<line
   class="st12"
   x1="37.799999"
   y1="3.5999999"
   x2="37.799999"
   y2="12"
   id="line2252" />
	</g>
</g>
<g
   id="TipIcon"
   class="st0">
	<g
   class="st7"
   id="g2269">
		<path
   d="m 30.2,13 v 0 c -8.9,0 -10,7.4 -9.8,9.9 0.4,6 4.5,5.2 4.5,12.9 0.4,0.1 0.8,0 0.8,0 v 4.7 l 3.9,3.1 H 31 l 3.7,-2.8 h -5.2 v -1.2 h 5.4 V 39 h -6.5 v -1.2 h 6.5 V 37 h -7.5 v -1.2 h 7.5 v 0 c 0,0 0,0 0,0 h 0.7 c 0,0 0,0 0,0 0,-7.7 4.1,-6.9 4.5,-12.9 0.1,-2.5 -1,-9.9 -9.9,-9.9 z m 7.5,9.3 c 0.1,4.5 -3.6,4.3 -4.1,11.7 -0.2,0 -6.7,0 -6.9,0 -0.5,-7.4 -4.2,-7.2 -4.1,-11.7 0,-0.5 -0.4,-7.3 7.6,-7.4 7.9,0.1 7.5,6.9 7.5,7.4 z"
   id="path2257" />
		<rect
   x="10.2"
   y="21.200001"
   class="st13"
   width="7.1999998"
   height="2.3"
   id="rect2259" />
		<rect
   x="43"
   y="21"
   class="st13"
   width="6.8000002"
   height="2.3"
   id="rect2261" />
		
			<rect
   x="39.299999"
   y="10.2"
   transform="matrix(0.7071,-0.7071,0.7071,0.7071,4.5397,33.5523)"
   class="st13"
   width="6.9000001"
   height="2.3"
   id="rect2263" />
		<rect
   x="29.1"
   y="3.5999999"
   class="st13"
   width="2.3"
   height="6.5999999"
   id="rect2265" />
		<rect
   x="16.799999"
   y="7.8000002"
   transform="matrix(0.7071,-0.7071,0.7071,0.7071,-2.744,15.9796)"
   class="st13"
   width="2.3"
   height="6.9000001"
   id="rect2267" />
	</g>
</g>

</svg>
