<?xml version="1.0" encoding="UTF-8" standalone="no"?>
<!-- Generator: Adobe Illustrator 25.3.1, SVG Export Plug-In . SVG Version: 6.00 Build 0)  -->

<svg
   version="1.1"
   id="Layer_1"
   inkscape:version="1.1.1 (3bf5ae0d25, 2021-09-20)"
   sodipodi:docname="notice_icon.svg"
   x="0px"
   y="0px"
   viewBox="0 0 38.173229 38.173232"
   width="10.1mm"
   height="10.1mm"
   xml:space="preserve"
   xmlns:inkscape="http://www.inkscape.org/namespaces/inkscape"
   xmlns:sodipodi="http://sodipodi.sourceforge.net/DTD/sodipodi-0.dtd"
   xmlns="http://www.w3.org/2000/svg"
   xmlns:svg="http://www.w3.org/2000/svg"><defs
   id="defs2624" /><sodipodi:namedview
   id="namedview2622"
   pagecolor="#ffffff"
   bordercolor="#666666"
   borderopacity="1.0"
   inkscape:pageshadow="2"
   inkscape:pageopacity="0.0"
   inkscape:pagecheckerboard="0"
   showgrid="false"
   units="mm"
   width="10.1mm"
   inkscape:zoom="16.284502"
   inkscape:cx="29.997848"
   inkscape:cy="15.444132"
   inkscape:window-width="1920"
   inkscape:window-height="1017"
   inkscape:window-x="-8"
   inkscape:window-y="-8"
   inkscape:window-maximized="1"
   inkscape:current-layer="Layer_1"
   inkscape:document-units="mm" />
<style
   type="text/css"
   id="style2615">
	.st0{fill:#FFFFFF;stroke:#FFFFFF;stroke-width:0.4754;stroke-linecap:round;stroke-linejoin:round;}
	.st1{fill:#FFFFFF;stroke:#FFFFFF;stroke-width:0.4376;}
	.st2{fill:#007EB4;}
	.st3{fill:none;}
</style>


<g
   id="g2892"
   transform="matrix(0.80694302,0,0,0.80694302,-5.1216764,0.12345322)"><ellipse
     id="path965"
     class="st0"
     cx="29.5"
     cy="22.4"
     rx="11.1"
     ry="18.200001" /><circle
     id="circle4"
     class="st1"
     cx="30"
     cy="23.5"
     r="23.200001" /><path
     id="path6"
     class="st2"
     d="M 27.6,45 C 23.8,44.6 19.9,43 16.8,40.6 15.9,39.9 14,38.1 13.3,37.1 12.3,35.9 11.4,34.5 10.7,32.9 7,25.6 7.9,16.9 12.9,10.3 c 0.7,-0.9 2.5,-2.8 3.5,-3.5 6.5,-5.3 15.5,-6.3 23,-2.7 4.4,2.1 7.8,5.6 10,10 3.6,7.3 2.7,16.1 -2.3,22.7 -0.7,0.9 -2.5,2.8 -3.5,3.5 -3.2,2.6 -7.2,4.3 -11.4,4.7 -1.2,0.2 -3.4,0.2 -4.6,0 z m 3.5,-5.3 c 0.9,-0.4 1.5,-1.3 1.5,-2.3 0,-0.7 -0.2,-1.3 -0.7,-1.8 -1,-1.1 -2.6,-1.1 -3.7,-0.1 -1.2,1.2 -1,3.2 0.4,4 0.9,0.5 1.6,0.5 2.5,0.2 z M 30.7,31.1 C 31.2,30.9 31.5,30.7 31.8,30 32,29.6 32.2,28.3 33.3,20.3 34.2,14 34.5,11 34.5,10.6 34.4,9.8 34,9 33.3,8.3 31.4,6.4 28.6,6.4 26.8,8.3 26,9.1 25.7,9.8 25.6,10.7 c 0,0.5 0.3,3.3 1.1,9.1 0.6,4.6 1.2,8.7 1.3,9.1 0.2,1.1 0.6,1.8 1.4,2.1 0.4,0.2 0.7,0.2 1.3,0.1 z" /></g>

</svg>
