<?xml version="1.0" encoding="utf-8"?>
<!-- Generator: Adobe Illustrator 25.3.1, SVG Export Plug-In . SVG Version: 6.00 Build 0)  -->
<svg version="1.1" id="Layer_1" xmlns="http://www.w3.org/2000/svg" xmlns:xlink="http://www.w3.org/1999/xlink" x="0px" y="0px" width="20" height="20" 
	 viewBox="0 0 18.78 18.78" enable-background="new 0 0 18.78 18.78" xml:space="preserve">
<path d="M9.39,0C4.212,0,0,4.212,0,9.39s4.212,9.39,9.39,9.39s9.39-4.212,9.39-9.39c0-1.862-0.547-3.597-1.485-5.058l-0.559,0.66
	c0.774,1.288,1.227,2.789,1.227,4.397c0,4.727-3.846,8.573-8.573,8.573s-8.573-3.846-8.573-8.573S4.663,0.816,9.39,0.816
	c2.222,0,4.243,0.857,5.768,2.249l0.534-0.631C14.025,0.923,11.813,0,9.39,0z"/>
<polygon points="16.835,2.349 8.947,11.657 5.626,8.56 5.07,9.158 9.016,12.838 17.458,2.877 "/>
</svg>
