<svg xmlns="http://www.w3.org/2000/svg" width="20" height="22.75" viewBox="0 0 20 22.75"><title>icon_tip</title><path d="M6.91,18.4c0-.35,0-.71,0-1.07a3.6,3.6,0,0,0-.65-2.25c-.34-.51-.7-1-1-1.51a7.06,7.06,0,0,1-1.36-4.9A5.5,5.5,0,0,1,6.17,4.73a6.36,6.36,0,0,1,9.15,1.64,5.93,5.93,0,0,1,.27,5.69,15.3,15.3,0,0,1-1.21,2c-.26.43-.58.84-.84,1.27a3.4,3.4,0,0,0-.48,1.84c0,.88,0,1.76,0,2.64a1.4,1.4,0,0,1-1.4,1.47c-.21,0-.27.08-.31.27a1.38,1.38,0,0,1-2.73,0c0-.17-.09-.25-.29-.26a1.41,1.41,0,0,1-1.42-1.49ZM10,16.66h2c.16,0,.26,0,.28-.2a5.66,5.66,0,0,1,1.1-2.4,18.38,18.38,0,0,0,1.17-1.75A5.33,5.33,0,0,0,14.69,7a5.38,5.38,0,0,0-5.77-2.6A5.06,5.06,0,0,0,5.05,7.55a5.4,5.4,0,0,0,.44,4.8A18.29,18.29,0,0,0,6.6,14a5.71,5.71,0,0,1,1.14,2.47c0,.18.15.19.29.19ZM7.79,18.79c-.14.52.15,1.66.7,1.67h3c.52,0,.71-1.14.7-1.67m-1.72,2.58h-1c.06.35.24.51.51.49S10.44,21.68,10.46,21.37Z"/><path d="M1.38,10.32H.5a.44.44,0,1,1,0-.88H2.32a.42.42,0,0,1,.46.45c0,.27-.17.42-.48.43Z"/><path d="M18.59,10.32h-.91c-.29,0-.46-.17-.46-.42a.42.42,0,0,1,.45-.46h1.84a.44.44,0,1,1,0,.88Z"/><path d="M10.44,1.42c0,.29,0,.59,0,.88a.46.46,0,0,1-.43.47.45.45,0,0,1-.45-.47V.46a.44.44,0,1,1,.88,0Z"/><path d="M5.07,4.59c-.08.1-.16.27-.29.32a.52.52,0,0,1-.44,0c-.5-.46-1-.93-1.43-1.43-.09-.09-.06-.37,0-.51a.34.34,0,0,1,.53-.11c.53.49,1,1,1.53,1.51C5,4.38,5,4.46,5.07,4.59Z"/><path d="M15.35,5c-.11-.1-.27-.18-.33-.3a.5.5,0,0,1,0-.42c.47-.5,1-1,1.46-1.44a.38.38,0,0,1,.55,0,.37.37,0,0,1,0,.55c-.46.5-1,1-1.45,1.44C15.59,5,15.49,5,15.35,5Z"/></svg>